<?xml version="1.0" encoding="utf-8"?>
<!-- Generator: Adobe Illustrator 21.0.0, SVG Export Plug-In . SVG Version: 6.00 Build 0)  -->
<svg version="1.1" id="Layer_1" xmlns="http://www.w3.org/2000/svg" xmlns:xlink="http://www.w3.org/1999/xlink" x="0px" y="0px"
	 viewBox="0 0 1190.55 841.89" style="enable-background:new 0 0 1190.55 841.89;" xml:space="preserve">
<style type="text/css">
	.st0{fill:#E13B41;}
	.st1{fill:#100E0D;}
	.st2{fill:#FDFEFD;}
	.st3{fill:#DF3A41;}
	.st4{fill:#0D1B24;}
	.st5{fill:#0D1B23;}
	.st6{fill:#A8B1B7;}
	.st7{fill:#DF3A40;}
	.st8{fill:#262223;}
	.st9{fill:#E1383C;}
	.st10{fill:#090709;}
	.st11{fill:#DC383C;}
	.st12{fill:#AAB0B2;}
	.st13{fill:#FDFEFB;}
	.st14{fill:#0A080A;}
	.st15{fill:#0C1B23;}
	.st16{fill:#E03B3F;}
	.st17{fill:#C4CDD3;}
	.st18{fill:#C3CCD2;}
	.st19{fill:#E5383F;}
	.st20{fill:#251F24;}
	.st21{fill:#FFFFFF;}
	.st22{fill:#E03A3F;}
	.st23{fill:#242021;}
	.st24{fill:#0E1C25;}
	.st25{fill:#271F23;}
	.st26{fill:#DC383D;}
	.st27{fill:#030303;}
	.st28{fill:#D31E48;}
</style>
<path class="st25" d="M923.32,421.59c-1.66-6.47-5.74-11.48-10-16.34c-4.02-4.58-8.47-8.82-11.71-14.04
	c-4.31-6.94-5.19-14.48-3.48-22.37c1.5-6.94,3.2-13.84,4.65-20.79c3.56-17.15,15.95-26.6,31.92-29.75c0.76-0.15,2.04,0.46,1.98-1.15
	c7.22,0,14.44,0,21.65,0c0.37,1.12,1.35,0.97,2.24,1.14c7.18,1.43,13.3,4.63,17.56,10.82c2.23,5.25,2.74,10.77,1.6,16.26
	c-2.12,10.2-4.68,20.3-6.87,30.48c-0.5,2.33-1.52,3-3.75,2.94c-4.67-0.12-9.35-0.04-14.03-0.04c-4.97,0-9.94,0-15.03,0
	c0-0.96-0.12-1.62,0.02-2.22c1.49-6.56,3.09-13.1,4.53-19.67c0.79-3.59,1.87-7.15,1.73-10.89c-0.06-1.74-0.43-3.31-2.3-4.04
	c-1.81-0.71-3.45-0.48-4.85,0.89c-0.72,0.71-1.39,1.48-1.99,2.28c-1.94,2.61-2.46,5.74-3.06,8.81c-2.37,12.26-0.29,23.32,8.8,32.51
	c2.58,2.61,5.11,5.28,7.62,7.96c9.62,10.29,11.73,22.6,10.31,36.02c-0.97,9.21-3.4,18.11-5.42,27.1
	c-1.53,6.79-4.62,12.91-9.92,17.58c-12.44,10.93-27.32,12.73-43.06,11.29c-4.94-0.45-9.46-2.24-14.07-3.81c0,0,0.03,0.03,0.03,0.03
	c-0.02-0.44-0.32-0.57-0.69-0.61c-7.86-5.43-10.5-12.99-9.01-22.2c0.4-2.46,0.95-4.89,1.51-7.32c2.49-10.96,5.01-21.92,7.55-33.06
	c10.86,0,21.65,0,32.44,0c-0.05,0.37-0.07,0.74-0.15,1.1c-2.35,10.42-4.76,20.82-7.02,31.25c-0.56,2.57-1.32,5.19-0.38,7.91
	c0.6,1.74,1.63,2.56,3.45,2.55c3.42-0.03,5.06-2.27,6.25-5.02c2.34-5.4,3.12-11.2,3.54-16.96
	C926.36,433.9,926.16,427.52,923.32,421.59z M810.94,483.76c2.51-11.06,4.96-21.91,7.43-32.75c3.11-13.66,6.31-27.3,9.3-40.98
	c0.52-2.38,1.62-2.75,3.65-2.44c4.37,0.68,6.77,4.34,5.71,9.71c-1.73,8.77-3.91,17.46-5.7,26.22c-2.11,10.37-5.73,20.46-5.83,31.2
	c-0.01,0.99-0.33,1.99-0.51,2.98c1.3,1.8,0.43,4.27,1.85,6.03c10.71,0,21.43,0,32.17,0c0.92-2.17,0.26-4.18,0.1-6.15
	c-0.72-8.68,0.9-17.07,2.81-25.46c2.74-12.04,5.49-24.08,7.96-36.18c0.71-3.49,0.83-7.23-0.1-10.75c-1.48-5.6-6.33-9.03-13.12-9.72
	c-1.51-0.15-3.14,0.06-4.77-1.46c5.76,0.05,10.57-1.82,15.03-4.63c6.82-4.29,10.99-10.63,13.14-18.22
	c2.39-8.42,4.57-16.92,5.41-25.66c0.48-4.96-0.9-9.67-3.07-14.13c-2.6-3.48-5.91-6.03-9.88-7.83c-5.23-2.37-10.81-3.2-16.43-3.28
	c-12.76-0.18-25.53,0-38.29-0.08c-1.92-0.01-2.45,0.69-2.84,2.44c-3.8,16.99-7.72,33.96-11.58,50.94
	c-7.18,31.52-14.39,63.04-21.49,94.58c-1.17,5.18-2.7,10.29-3.25,15.6C789.36,483.76,800.08,483.76,810.94,483.76z M838.12,366.54
	c1.53-6.83,3.17-13.63,4.64-20.47c0.3-1.39,0.89-1.73,2.22-1.78c6.92-0.22,9,2.35,7.29,9.13c-0.31,1.25-0.43,2.55-0.72,3.8
	c-1.73,7.46-3.4,14.93-5.27,22.35c-0.93,3.68-2.15,7.28-6.32,8.74c-2.09,0.73-4.17,0.37-6.75,0.41
	C834.91,381.08,836.49,373.8,838.12,366.54z M424.2,399.08c-2.78-1.2-5.85-1.27-8.7-2.47c4.34-0.99,8.48-2.32,12.43-4.24
	c6.67-3.24,11.85-8.17,14.39-15.06c4.22-11.43,7.54-23.13,7.52-35.52c0-3.21-1.41-6.03-1.81-9.11c0,0,0.02,0.03,0.02,0.03
	c-0.46,0.04-0.57-0.22-0.54-0.61c0,0,0.02,0.03,0.02,0.03c-0.4-0.09-0.55-0.38-0.59-0.76c-1.25-1.47-2.44-2.98-3.95-4.24
	c-6.4-5.31-14.14-6.68-22.01-6.87c-12.93-0.31-25.88-0.05-38.82-0.08c-1.56,0-2.2,0.42-2.57,2.05c-2.41,10.87-5.01,21.7-7.48,32.57
	c-8.91,39.25-17.81,78.5-26.65,117.76c-0.84,3.72-2.23,7.37-2.12,11.27c13.04-0.04,26.08,0.01,39.11-0.15
	c7.39-0.09,14.68-0.98,21.62-3.82c10.47-4.29,16.93-12.34,20.51-22.69c4.11-11.87,6.62-24.19,8.33-36.62
	c0.7-5.1,0.36-10.33-1.56-15.28c0,0-0.06-0.16-0.06-0.16C429.15,402.85,427.22,400.38,424.2,399.08z M385.48,441.97
	c2.3-10.17,4.74-20.3,6.96-30.49c0.4-1.84,1.26-2.58,2.93-2.61c1.37-0.03,2.73-0.15,4.12,0.3c3.05,0.98,4.1,2.58,3.42,5.83
	c-0.69,3.34-1.45,6.67-2.22,10c-2.11,9.18-4.17,18.37-6.4,27.52c-1.82,7.47-3.73,8.06-12.8,8.07
	C382.86,454.2,384.1,448.07,385.48,441.97z M401.17,373.36c1.92-8.55,3.82-17.1,5.84-25.62c0.33-1.39-0.14-3.45,2.55-3.47
	c4.6-0.04,6.53,0.71,7.44,3.27c0.8,2.25,0.19,4.42-0.29,6.56c-1.91,8.65-3.89,17.29-5.93,25.91c-1.61,6.78-5.48,9.36-12.88,8.34
	C399.02,383.23,400.07,378.29,401.17,373.36z M601.28,483.75c0.54-4.18,1.14-8.15,1.56-12.14c1.41-13.29,2.77-26.57,4.37-39.84
	c1.41-11.7,2.36-23.46,3.61-35.18c1.35-12.64,2.84-25.27,4.2-37.91c1.22-11.27,2.34-22.54,3.51-33.81c0.15-1.46,0.38-2.92,0.57-4.38
	c-0.25-0.11-0.49-0.31-0.74-0.31c-13.4,0.01-26.81,0.09-40.21,0.01c-1.92-0.01-2.48,0.85-3.05,2.38
	c-6.11,16.37-12.28,32.72-18.43,49.07c-12.8,34.03-25.63,68.05-38.36,102.11c-1.24,3.31-3.07,6.45-3.4,10.08
	c8.68-0.02,17.36-0.15,26.04,0c2.42,0.04,3.07-1.07,3.73-3.02c4.66-13.78,9.41-27.53,14.2-41.47c4.52,0,9.04,0.01,13.55,0
	c1.05,0,1.57,0.45,1.39,1.53c-0.48,2.81-0.97,5.62-1.46,8.43c-1.22,8.8-2.5,17.6-3.62,26.42c-0.34,2.67-1.49,5.29-0.72,8.06
	C579.01,483.75,590,483.75,601.28,483.75z M587.66,355.1c-3.07,19.03-6.23,38.05-9.19,57.09c-0.46,2.93-1.36,4.29-4.5,3.81
	c-1.88-0.29-3.85-0.05-6.42-0.05c6.67-21.82,13.21-43.22,19.76-64.63c0.23,0.04,0.46,0.08,0.69,0.12
	C587.88,352.66,587.85,353.89,587.66,355.1z M756.67,483.81c3.11,0.03,4.12-1.03,4.66-3.84c1.28-6.59,2.84-13.13,4.29-19.69
	c-5.16-0.81-10.36-0.09-15.53-0.39c-3.96,0-7.92,0-11.99,0c-0.5-1.75,0.31-3.22,0.63-4.66c3.57-16.12,7.25-32.21,10.87-48.32
	c0.4-1.77,1.2-2.59,3.22-2.55c7.3,0.13,14.61,0.02,21.92,0.08c1.58,0.01,2.64-0.3,3.01-2.02c1.53-7.12,3.12-14.22,4.69-21.33
	c-4.87-0.05-9.74-0.1-14.61-0.16c-3.94,0-7.89,0-12.21,0c2.84-12.55,5.6-24.76,8.39-37.11c8.52,0,16.83-0.09,25.15,0.05
	c2.38,0.04,3.3-0.63,3.78-3.05c1.34-6.79,3.04-13.5,4.6-20.25c-0.23-0.13-0.47-0.39-0.71-0.39c-19.42,0-38.84,0.04-58.26,0.01
	c-1.61,0-2.02,0.76-2.31,2.09c-1.11,5.23-2.25,10.45-3.44,15.65c-10.47,45.98-20.97,91.95-31.39,137.94
	c-0.59,2.59-1.76,5.13-1.3,7.91C718.97,483.76,737.82,483.65,756.67,483.81z M654.9,460.15c2.58-5.33,4.87-10.14,7.22-14.91
	c16.43-33.36,32.94-66.68,49.24-100.1c2.51-5.14,2.78-11.05,4.21-16.58c0.69-2.67,1.2-5.39,1.79-8.09
	c-0.08-0.05-0.16-0.13-0.24-0.13c-20.97-0.04-41.94-0.06-62.9-0.11c-0.97,0-1.57,0.26-1.79,1.28c-1.59,7.45-3.21,14.89-4.81,22.33
	c9.98,0,19.97,0,30.27,0c-1.51,3.69-2.98,6.92-4.83,9.96c-0.12,0.44-0.17,0.9-0.36,1.3c-14.17,29.58-28.43,59.11-42.49,88.75
	c-3.49,7.37-8,14.35-9.33,22.65c-0.93,5.79-2.99,11.36-3.51,17.25c21.32,0,42.64,0,64.31,0c1.78-7.91,3.52-15.7,5.27-23.49
	c-5.46-0.03-10.91-0.07-16.37-0.1C665.54,460.15,660.5,460.15,654.9,460.15z M494.7,483.78c2.51,0.01,3.7-0.44,4.21-3.18
	c1.25-6.78,3.22-13.42,4.3-20.24c-0.08-0.11-0.17-0.2-0.3-0.26c0,0-0.06-0.04-0.06-0.04c-5.3-0.01-10.6-0.01-15.91-0.02
	c-3.85,0-7.7,0-11.92,0c1.18-5.38,2.22-10.32,3.34-15.24c6.99-30.95,13.98-61.9,20.99-92.85c2.38-10.52,4.81-21.03,7.21-31.54
	c-10.35-0.05-20.7-0.09-31.05-0.17c-1.77-0.01-1.74,1.22-2.01,2.4c-3.67,16.28-7.36,32.55-11.06,48.82
	c-7.73,33.98-15.51,67.96-23.16,101.96c-0.77,3.41-2.25,6.74-1.87,10.37C456.51,483.76,475.6,483.7,494.7,483.78z"/>
<path class="st25" d="M274.05,493.46c0.15-1.37,1.06-1.81,1.68-2.43c13.33-13.37,26.75-26.64,39.99-40.09
	c12.39-12.59,19.52-27.66,18.95-45.5c-0.61-19.26-7.89-35.68-23.11-48.11c-0.21-0.17-0.43-0.35-0.62-0.55
	c-0.12-0.13-0.2-0.31-0.36-0.57c1.4-1.42,2.81-2.86,4.4-4.47c5.89,4.2,10.54,9.37,14.47,15.2c8.09,12.02,12.47,25.32,12.46,39.8
	c-0.01,14.54-4.61,27.71-13.22,39.49c-4.06,5.56-8.98,10.31-13.76,15.2c-9.64,9.86-19.53,19.47-29.17,29.33
	c-1.98,2.03-3.92,3.12-6.77,2.73C277.4,493.28,275.74,493.46,274.05,493.46z M260.83,493.5c3.14,0.47,5.28-0.79,7.48-3.02
	c14.49-14.69,29.12-29.23,43.71-43.81c18.56-18.55,22.33-46.57,9.25-69.33c-3.8-6.62-8.58-12.39-14.95-16.55
	c-1.62,1.51-3.1,2.89-4.64,4.32c0.39,0.41,0.6,0.73,0.89,0.93c8.61,6.02,14.17,14.29,16.99,24.25c5.5,19.37,1.93,36.79-12.35,51.39
	c-16.23,16.6-32.7,32.97-49.04,49.46c-0.61,0.62-1.49,1.07-1.72,2.34C257.97,493.46,259.43,493.29,260.83,493.5z M238.79,493.47
	c1.53,0,3.09-0.17,4.59,0.04c3.02,0.42,5.1-0.71,7.23-2.88c16.68-16.93,33.39-33.84,50.29-50.54
	c12.42-12.28,17.68-26.81,14.41-44.02c-2.14-11.3-8.33-20.08-18.62-26.63c-0.66,0.9-1.18,1.81-1.89,2.52
	c-0.76,0.75-1.7,1.3-2.7,2.04c13.23,8.54,17.58,21.13,17.42,32.34c-0.16,10.94-4.53,20.18-12.25,27.89
	c-18.78,18.76-37.53,37.55-56.32,56.3c-0.81,0.81-1.9,1.34-2.87,2C238.31,492.84,238.55,493.16,238.79,493.47z M285.37,384.87
	c8.3,6.16,12.38,14.26,11.07,24.67c-0.84,6.67-4.31,12.06-8.98,16.74c-21.61,21.68-43.21,43.36-64.79,65.05
	c-0.55,0.55-1.37,0.94-1.55,2.13c2.25,0,4.44-0.11,6.62,0.04c1.52,0.1,2.57-0.37,3.64-1.44c20.83-20.89,41.71-41.72,62.55-62.61
	c5.47-5.48,8.78-12.1,9.39-19.86c0.96-12.31-2.92-22.53-13.45-29.71c-1.32-0.9-2.2-0.87-3.32,0.31c-1,1.05-2.29,1.82-3.65,2.87
	C284.18,384.02,284.78,384.43,285.37,384.87z M275.9,393.83c9.59,5.99,10.65,15.58,2.65,23.59c-3.2,3.2-6.29,6.52-9.5,9.72
	c-18.76,18.77-37.53,37.53-56.31,56.29c-3.18,3.18-6.41,6.31-10.2,10.03c2.63,0,4.47-0.19,6.25,0.05c2.67,0.36,4.46-0.73,6.26-2.59
	c8.17-8.43,16.44-16.76,24.72-25.08c14.95-15,29.96-29.94,44.91-44.93c8.71-8.73,8.21-23.07-1-30.14c-4.06-3.11-4.68-3.08-8.12,0.46
	c-0.44,0.45-0.86,0.91-1.41,1.5C274.85,393.17,275.38,393.5,275.9,393.83z"/>
<path class="st26" d="M200.4,394.89c0.74-0.34,0.98-0.94,1.13-1.73c2.55-13.81,9.27-25.43,18.98-35.36
	c11.38-11.64,22.96-23.09,34.33-34.74c2.04-2.09,4.07-3.23,7-2.87c1.6,0.2,3.24,0.04,5.59,0.04c-4.6,4.6-8.65,8.64-12.68,12.69
	c-10.11,10.17-20.45,20.12-30.27,30.57c-20.72,22.06-22.16,52.42-6.9,77.03c3.68,5.93,8.28,11.04,13.87,15.16
	c-1.59,1.6-3,3.02-4.58,4.61c-3.42-2.03-6.24-5.08-8.96-8.17c-7.98-9.05-13.17-19.57-15.91-31.31c-0.35-1.48-0.66-2.99-1.61-4.25
	C200.4,409.32,200.4,402.1,200.4,394.89z M233.81,441.44c-18.41-19.15-18.18-51.47,0.54-70.36c16.01-16.15,32.06-32.28,48.07-48.43
	c0.62-0.63,1.52-1.08,1.7-2.15c-1.23-0.66-2.54-0.14-3.79-0.33c-3.27-0.49-5.63,0.73-7.99,3.14c-13.75,13.97-27.67,27.78-41.58,41.6
	c-4.62,4.6-8.77,9.59-11.53,15.48c-9.62,20.53-7.91,40.32,4.59,59.15c3.17,4.78,7.17,8.84,11.98,12.01c1.57-1.59,2.98-3,4.58-4.61
	C237.97,445.08,235.74,443.44,233.81,441.44z M240.35,429.73c-9.86-13.07-10.31-30.69-1.38-44.44c3.32-5.1,7.84-9.09,12.03-13.35
	c13.82-14.05,27.82-27.91,41.77-41.83c3.11-3.1,6.31-6.13,9.46-9.19c-0.13-0.24-0.26-0.48-0.39-0.72c-2.18,0-4.37,0.06-6.55-0.02
	c-1.59-0.06-2.76,0.48-3.9,1.63c-16.86,17.02-33.7,34.07-50.69,50.96c-10.13,10.07-15.28,22.01-14.75,36.33
	c0.44,12.11,5.24,22.17,14.36,30.1c4.58,3.98,5.11,3.81,8.92-1.05c0.05-0.06,0.04-0.17,0.1-0.51
	C245.85,435.67,242.8,432.98,240.35,429.73z M319.51,320.22c-1.37,0-2.76,0.13-4.12-0.03c-3.29-0.37-5.63,0.91-7.96,3.28
	c-13.02,13.25-26.26,26.3-39.35,39.49c-7.48,7.54-15.45,14.63-22.32,22.75c-10.62,12.56-9.23,32.68,2.77,43.79
	c4.96,4.6,5.11,4.59,9.73-0.22c0.1-0.11,0.1-0.31,0.2-0.65c-0.91-0.67-1.88-1.36-2.82-2.08c-5.11-3.92-8.45-9-9.72-15.33
	c-2.03-10.02,1.75-18.18,8.6-25.09c16.99-17.14,34.1-34.15,51.17-51.21c4.69-4.68,9.41-9.34,14.12-14
	C319.71,320.7,319.61,320.46,319.51,320.22z M332.71,320.11c-3.23-0.47-5.65,0.7-7.68,3.25c-1.78,2.23-3.85,4.24-5.87,6.26
	c-20.52,20.55-41.06,41.09-61.6,61.62c-2.33,2.33-4.05,5.01-5.16,8.11c-3.26,9.16,0.43,19.48,8.51,23.72
	c1.04,0.54,2.18,1.38,3.3,0.28c1.21-1.19,2.6-2.25,3.49-3.85c-0.51-0.37-0.87-0.65-1.25-0.9c-10.12-6.71-11.02-15.63-2.49-24.2
	c8.81-8.85,17.55-17.76,26.37-26.6c14.96-15,29.96-29.95,44.92-44.95c0.68-0.68,1.68-1.17,1.82-2.39
	C335.64,319.91,334.14,320.32,332.71,320.11z"/>
<path class="st26" d="M990.11,352.72c-1.6,9.84-4.23,19.47-6.35,29.19c-1.67,7.65-1.87,7.58-9.82,6.83
	c-8.83-0.84-17.68-0.03-26.55-0.4c-0.21,1.45,0.84,1.73,1.44,2.31c7.68,7.41,14.59,15.39,19.63,24.91
	c4.02,7.6,4.04,15.61,3.02,23.76c-1.24,9.91-3.89,19.55-6.36,29.19c-1.94,7.55-6.06,14.29-12.3,19.03c-3.03,2.3-6.42,4.08-9.96,5.46
	c-4.79,1.86-10.14,2.91-15.27,2.68c-5.66-0.25-11.33,0.3-16.98-0.08c-0.51-0.03-1.02-0.08-1.52-0.13c-3.13-0.31-6.29-1-9.1-2.43
	c-2.95-1.51-5.67-3.87-7.96-6.24c-1.29-1.34-2.5-2.76-3.64-4.23c4.61,1.57,9.13,3.36,14.07,3.81c15.74,1.44,30.63-0.36,43.06-11.29
	c5.31-4.66,8.39-10.78,9.92-17.58c2.02-8.98,4.45-17.89,5.42-27.1c1.42-13.42-0.69-25.73-10.31-36.02
	c-2.51-2.68-5.04-5.35-7.62-7.96c-9.09-9.19-11.17-20.25-8.8-32.51c0.59-3.08,1.11-6.2,3.06-8.81c0.6-0.81,1.27-1.58,1.99-2.28
	c1.4-1.37,3.04-1.61,4.85-0.89c1.87,0.73,2.24,2.3,2.3,4.04c0.14,3.74-0.94,7.3-1.73,10.89c-1.44,6.57-3.03,13.11-4.53,19.67
	c-0.14,0.6-0.02,1.26-0.02,2.22c5.08,0,10.05,0,15.03,0c4.68,0,9.35-0.09,14.03,0.04c2.22,0.06,3.25-0.61,3.75-2.94
	c2.19-10.18,4.75-20.29,6.87-30.48c1.14-5.49,0.63-11.01-1.6-16.26c1.59,1.4,3.17,2.8,4.76,4.19c4.2,3.66,6.9,8.11,7.25,13.79
	C990.13,348.97,990.12,350.85,990.11,352.72z M587.12,493.77c2.13-0.44,4.43-0.07,6.65-0.07c5.82,0,11.63,0,17.24,0
	c0.78-0.82,0.68-1.61,0.76-2.32c2.29-21.41,4.54-42.82,6.86-64.22c3.42-31.6,6.88-63.2,10.32-94.8c0.11-0.98,0.42-2.05-0.48-2.88
	c-3.18-2.93-5.9-6.35-9.35-9c-0.19,1.46-0.42,2.92-0.57,4.38c-1.18,11.27-2.3,22.55-3.51,33.81c-1.36,12.64-2.85,25.27-4.2,37.91
	c-1.25,11.72-2.2,23.48-3.61,35.18c-1.6,13.27-2.96,26.56-4.37,39.84c-0.42,3.99-1.02,7.96-1.56,12.14c-11.28,0-22.26,0-33.25,0
	C572.91,489.9,577.93,495.67,587.12,493.77z M834.69,491.89c1.22,1.35,2.51,1.87,4.34,1.85c8.88-0.09,17.76-0.02,26.64-0.04
	c1.18,0,2.4,0.25,3.8-0.4c-0.18-2.84-0.46-5.75-0.54-8.66c-0.3-11.14,2.97-21.72,5.23-32.45c2-9.48,4.78-18.8,5.95-28.45
	c0.73-6.07-0.05-11.62-5.36-15.68c-1.8-1.38-3.36-3.09-4.9-4.54c0.55-1.24,1.36-1.29,2.02-1.56c9.46-3.92,15.39-11.05,18.16-20.71
	c1.93-6.74,3.36-13.62,4.81-20.48c1.02-4.84,0.99-9.73-0.44-14.55c-1.96-6.61-7.35-10.43-12.01-14.84
	c2.17,4.46,3.55,9.17,3.07,14.13c-0.84,8.74-3.03,17.24-5.41,25.66c-2.15,7.59-6.32,13.93-13.14,18.22
	c-4.46,2.81-9.27,4.68-15.03,4.63c1.63,1.52,3.26,1.31,4.77,1.46c6.79,0.68,11.64,4.12,13.12,9.72c0.93,3.52,0.81,7.26,0.1,10.75
	c-2.47,12.1-5.22,24.14-7.96,36.18c-1.91,8.39-3.53,16.79-2.81,25.46c0.16,1.97,0.82,3.98-0.1,6.15c-10.74,0-21.46,0-32.17,0
	C829.47,486.44,832.16,489.09,834.69,491.89z M671.71,456.85c16.12-33.1,32.33-66.17,48.54-99.23c0.9-1.83,1.79-3.63,2.24-5.64
	c1.5-6.65,3.05-13.3,4.59-19.94c0.21-0.92,0.44-1.84-0.35-2.59c-3.15-2.97-5.92-6.33-9.37-8.98c-0.59,2.7-1.1,5.42-1.79,8.09
	c-1.43,5.53-1.7,11.44-4.21,16.58c-16.3,33.42-32.81,66.74-49.24,100.1c-2.35,4.78-4.64,9.58-7.22,14.91c5.6,0,10.64,0,15.69,0
	C669.57,458.6,671.22,457.84,671.71,456.85z M352.22,492.99c0.66,0.68,1.44,0.71,2.29,0.7c14.7-0.16,29.41,0.51,44.1-0.34
	c17.73-1.02,30.07-9.51,36.17-26.56c2.75-7.69,4.07-15.71,6.01-23.59c1.57-6.38,2.59-12.86,2.26-19.48
	c-0.19-3.85-0.86-7.61-3.54-10.54c-2.55-2.78-5.42-5.28-8.15-7.9c1.92,4.95,2.26,10.19,1.56,15.28c-1.7,12.43-4.22,24.75-8.33,36.62
	c-3.58,10.35-10.03,18.4-20.51,22.69c-6.94,2.84-14.23,3.73-21.62,3.82c-13.04,0.16-26.07,0.11-39.11,0.15
	C346.31,486.89,349.27,489.93,352.22,492.99z M487.04,458.66c4.49-19.8,8.99-39.6,13.48-59.4c5.16-22.77,10.3-45.55,15.47-68.31
	c0.21-0.91,0.58-1.7-0.35-2.51c-3.06-2.64-5.8-5.65-9.09-8.04c-2.41,10.51-4.83,21.02-7.21,31.54c-7.01,30.95-14,61.9-20.99,92.85
	c-1.11,4.92-2.16,9.86-3.34,15.24c4.22,0,8.07,0,11.92,0C486.97,459.58,486.94,459.1,487.04,458.66z M786.85,492.3
	c0.96,1.03,1.97,1.42,3.38,1.42c9.59-0.05,19.18-0.01,28.77-0.02c0.81,0,1.66,0.16,2.54-0.38c0.07-0.26,0.17-0.6,0.25-0.94
	c1.18-4.87,1.3-9.97,3.2-14.69c0.18-0.99,0.5-1.98,0.51-2.98c0.11-10.75,3.72-20.84,5.83-31.2c1.79-8.76,3.97-17.45,5.7-26.22
	c1.06-5.37-1.34-9.03-5.71-9.71c-2.02-0.31-3.13,0.06-3.65,2.44c-2.99,13.69-6.19,27.33-9.3,40.98c-2.47,10.85-4.92,21.7-7.43,32.75
	c-10.87,0-21.58,0-32.3,0C781.39,486.6,784.16,489.41,786.85,492.3z M750.28,457.97c2.28-9.96,4.59-19.92,6.88-29.89
	c1.03-4.46,2.04-8.91,3.08-13.44c8.43,0,16.55-0.04,24.67,0.03c1.65,0.01,2.54-0.43,2.91-2.13c1.41-6.58,2.92-13.13,4.38-19.69
	c0.22-0.99,0.46-1.94-0.46-2.82c-3.11-2.98-5.93-6.25-9.31-8.95c-1.57,7.11-3.15,14.21-4.69,21.33c-0.37,1.72-1.43,2.04-3.01,2.02
	c-7.31-0.06-14.61,0.05-21.92-0.08c-2.02-0.04-2.82,0.78-3.22,2.55c-3.63,16.11-7.31,32.2-10.87,48.32
	c-0.32,1.44-1.13,2.91-0.63,4.66c4.07,0,8.03,0,11.99,0C750.15,459.25,750.14,458.59,750.28,457.97z M522.91,492.17
	c1.11,1.22,2.31,1.58,3.9,1.56c8.13-0.06,16.26-0.1,24.38,0.03c2.05,0.03,2.84-0.67,3.47-2.55c4.32-12.94,8.86-25.8,13.08-38.78
	c0.86-2.63,2.08-3.57,4.62-3.16c0.49-2.81,0.99-5.61,1.46-8.43c0.18-1.07-0.34-1.53-1.39-1.53c-4.51,0.01-9.03,0-13.55,0
	c-4.78,13.93-9.54,27.68-14.2,41.47c-0.66,1.94-1.31,3.06-3.73,3.02c-8.68-0.15-17.36-0.02-26.04,0
	C517.58,486.59,520.31,489.32,522.91,492.17z M772.24,361.5c1.65-7.71,1.59-7.72,9.39-7.72c6.82,0,13.65,0,20.55,0
	c1.73-7.51,3.4-14.79,5.06-22.07c0.22-0.95,0.01-1.75-0.77-2.49c-3.02-2.85-5.97-5.76-8.95-8.65c-1.56,6.74-3.26,13.46-4.6,20.25
	c-0.48,2.42-1.4,3.09-3.78,3.05c-8.31-0.14-16.63-0.05-25.15-0.05c-2.79,12.35-5.55,24.56-8.39,37.11c4.32,0,8.26,0,12.21,0
	C769.3,374.45,770.85,367.99,772.24,361.5z M626.38,493.09c0.57,0.61,1.29,0.61,2.04,0.61c20.44,0,40.89-0.01,61.33,0.03
	c1.46,0,2.12-0.47,2.43-1.93c1.46-6.77,3.03-13.52,4.55-20.28c0.18-0.81,0.33-1.61-0.42-2.31c-3.13-2.97-6.24-5.97-9.36-8.96
	c-1.75,7.79-3.5,15.58-5.27,23.49c-21.67,0-42.99,0-64.31,0C620.06,487.16,623.42,489.93,626.38,493.09z M433.89,404.16
	c10.02-3.64,16.75-10.49,20.03-20.66c2.49-7.73,4.08-15.69,5.64-23.64c2.26-11.58-1.98-20.54-11.53-27.18
	c0.39,3.07,1.8,5.89,1.81,9.11c0.02,12.39-3.3,24.09-7.52,35.52c-2.54,6.89-7.72,11.82-14.39,15.06c-3.95,1.92-8.09,3.25-12.43,4.24
	c2.84,1.19,5.91,1.26,8.7,2.47c3.02,1.31,4.95,3.78,7.1,6.04C432.16,404.8,433.03,404.48,433.89,404.16z M446.28,492.91
	c0.64,0.66,1.38,0.8,2.25,0.8c19.24-0.01,38.48-0.02,57.73,0.02c1.47,0,2.09-0.44,2.38-1.96c1.07-5.63,1.83-11.37,3.6-16.78
	c1.67-5.12,0.62-8.62-3.9-11.22c-1.79-1.03-2.7-3.36-5.14-3.41c-1.08,6.82-3.05,13.46-4.3,20.24c-0.5,2.74-1.7,3.19-4.21,3.18
	c-19.1-0.09-38.19-0.02-57.29,0C440.37,486.83,443.34,489.86,446.28,492.91z M707.92,491.96c1.22,1.4,2.58,1.78,4.37,1.78
	c18.38-0.05,36.76-0.02,55.13-0.04c1,0,2.04,0.22,3.05-0.38c1.65-7.13,3.31-14.31,4.99-21.48c0.22-0.94,0.28-1.8-0.5-2.55
	c-3.13-2.99-6.23-6-9.35-9c-1.45,6.56-3.01,13.1-4.29,19.69c-0.54,2.8-1.55,3.86-4.66,3.84c-18.85-0.16-37.69-0.05-56.54-0.04
	C702.43,486.78,705.45,489.12,707.92,491.96z M920.21,419.41c-0.05,0.37-0.07,0.74-0.15,1.1c-2.35,10.42-4.76,20.82-7.02,31.25
	c-0.56,2.57-1.32,5.19-0.38,7.91c0.6,1.74,1.63,2.56,3.45,2.55c3.42-0.03,5.06-2.27,6.25-5.02c2.34-5.4,3.12-11.2,3.54-16.96
	c0.46-6.33,0.26-12.71-2.58-18.64C921.73,421.65,921.56,419.69,920.21,419.41z M656.4,352.96c0.8,0.84,1.78,0.81,2.81,0.81
	c4.61-0.01,9.23,0.01,13.84,0.02c1.85-3.05,3.32-6.27,4.83-9.96c-10.3,0-20.28,0-30.27,0C650.54,346.87,653.49,349.9,656.4,352.96z
	 M447.51,332.1c-0.03,0.39,0.08,0.65,0.54,0.61C448.12,332.29,447.94,332.09,447.51,332.1z M446.95,331.38
	c0.04,0.37,0.19,0.66,0.59,0.76C447.58,331.69,447.3,331.5,446.95,331.38z M502.91,460c0,0-0.07,0.06-0.07,0.06s0.06,0.04,0.06,0.04
	L502.91,460z M888.41,482.6c-0.02-0.44-0.32-0.57-0.69-0.61C887.8,482.36,888.02,482.57,888.41,482.6z M839.97,388.31
	c4.17-1.45,5.39-5.06,6.32-8.74c1.87-7.42,3.54-14.9,5.27-22.35c0.29-1.26,0.41-2.55,0.72-3.8c1.71-6.78-0.37-9.35-7.29-9.13
	c-1.33,0.04-1.92,0.38-2.22,1.78c-1.48,6.84-3.11,13.65-4.64,20.47c-1.63,7.26-3.21,14.54-4.9,22.19
	C835.8,388.68,837.88,389.04,839.97,388.31z M394.3,452.51c2.23-9.15,4.28-18.34,6.4-27.52c0.77-3.33,1.52-6.66,2.22-10
	c0.67-3.25-0.37-4.85-3.42-5.83c-1.38-0.44-2.75-0.33-4.12-0.3c-1.66,0.03-2.53,0.77-2.93,2.61c-2.22,10.18-4.67,20.32-6.96,30.49
	c-1.38,6.1-2.62,12.24-3.98,18.62C390.56,460.58,392.47,459.99,394.3,452.51z M410.79,380c2.04-8.62,4.02-17.26,5.93-25.91
	c0.47-2.14,1.08-4.31,0.29-6.56c-0.91-2.56-2.84-3.31-7.44-3.27c-2.7,0.02-2.23,2.08-2.55,3.47c-2.02,8.52-3.93,17.08-5.84,25.62
	c-1.1,4.93-2.15,9.87-3.27,14.99C405.31,389.36,409.18,386.78,410.79,380z M587.3,351.32c-6.54,21.41-13.09,42.81-19.76,64.63
	c2.57,0,4.54-0.23,6.42,0.05c3.14,0.48,4.05-0.88,4.5-3.81c2.96-19.05,6.12-38.06,9.19-57.09c0.19-1.21,0.22-2.44,0.33-3.66
	C587.76,351.4,587.53,351.36,587.3,351.32z"/>
</svg>
