<?xml version="1.0" encoding="utf-8"?>
<!-- Generator: Adobe Illustrator 21.0.0, SVG Export Plug-In . SVG Version: 6.00 Build 0)  -->
<svg version="1.1" id="Layer_1" xmlns="http://www.w3.org/2000/svg" xmlns:xlink="http://www.w3.org/1999/xlink" x="0px" y="0px"
	 viewBox="0 0 1190.55 841.89" style="enable-background:new 0 0 1190.55 841.89;" xml:space="preserve">
<style type="text/css">
	.st0{fill:#E13B41;}
	.st1{fill:#100E0D;}
	.st2{fill:#FDFEFD;}
	.st3{fill:#DF3A41;}
	.st4{fill:#0D1B24;}
	.st5{fill:#0D1B23;}
	.st6{fill:#A8B1B7;}
	.st7{fill:#DF3A40;}
	.st8{fill:#262223;}
	.st9{fill:#E1383C;}
	.st10{fill:#090709;}
	.st11{fill:#DC383C;}
	.st12{fill:#AAB0B2;}
	.st13{fill:#FDFEFB;}
	.st14{fill:#0A080A;}
	.st15{fill:#0C1B23;}
	.st16{fill:#E03B3F;}
	.st17{fill:#C4CDD3;}
	.st18{fill:#C3CCD2;}
	.st19{fill:#E5383F;}
	.st20{fill:#251F24;}
	.st21{fill:#FFFFFF;}
	.st22{fill:#E03A3F;}
	.st23{fill:#242021;}
	.st24{fill:#0E1C25;}
	.st25{fill:#271F23;}
	.st26{fill:#DC383D;}
	.st27{fill:#030303;}
	.st28{fill:#D31E48;}
</style>
<path class="st9" d="M124.32,513.07c2.06-0.89,1.46-2.98,1.81-4.48c5.39-23.29,10.66-46.61,15.94-69.93
	c4.85-21.45,9.65-42.9,14.52-64.34c4.71-20.73,9.48-41.44,14.28-62.42c7.32,0,14.61-0.11,21.89,0.02
	c12.12,0.21,24.26-0.81,36.35,0.62c9.12,1.07,17.48,3.94,23.97,10.95c1.1,1.19,1.66,2.68,2.8,3.79c0.33,2.76,2.49,4.93,2.53,7.77
	c0.09,6.5,0.59,12.93-1.08,19.44c-2.23,8.73-3.53,17.71-6.66,26.21c-3.48,9.48-9.34,16.93-18.53,21.58
	c-5.31,2.69-10.83,4.63-16.75,5.72c0.55,0.41,1.09,0.6,1.65,0.73c3.93,0.91,7.84,1.73,11.48,3.7c3.21,1.73,4.82,4.89,7.43,7.13
	c0,0-0.02-0.03-0.02-0.03c-0.38,0.65-0.06,1.25,0.15,1.84c2.35,6.66,2.12,13.46,1.01,20.26c-0.84,5.15-1.84,10.26-3.04,15.36
	c-2.32,9.94-3.99,20.04-7.9,29.54c-4.8,11.65-12.26,20.89-24.07,26.15c-7.55,3.36-15.61,4.8-23.69,4.95
	c-18.01,0.34-36.04,0.02-54.06-0.02C124.32,516.08,124.32,514.58,124.32,513.07z M172.7,488.02c8.47,1.52,13.82-0.04,15.85-8.19
	c0.41-1.66,0.51-3.35,0.95-5.02c1.64-6.27,3-12.61,4.46-18.92c1.18-5.07,2.42-10.13,3.51-15.22c0.82-3.85,1.7-7.72,2.07-11.62
	c0.34-3.54-1.35-4.93-5.04-4.97c-1.72-0.02-3.44,0.08-5.15-0.03c-1.59-0.1-2.27,0.5-2.61,2.07c-1.84,8.3-3.79,16.58-5.68,24.88
	c-1.56,6.85-3.09,13.71-4.63,20.57C175.18,477.04,173.94,482.52,172.7,488.02z M193.12,398.1c5.41,0.22,10.34-0.01,13.6-4.57
	c2.39-3.33,3.07-7.44,3.98-11.37c1.08-4.68,1.91-9.41,2.98-14.09c1.42-6.21,3.37-12.31,3.82-18.72c0.25-3.53-0.93-5.93-3.41-6.47
	c-2.71-0.59-5.47-0.84-8.37-0.28C201.53,361.06,197.36,379.43,193.12,398.1z M811.55,517.11c0,0-0.05-0.04-0.05-0.04
	c3.41-0.15,6.16,1.98,9.38,2.67c8.44,1.81,16.84,2.87,25.47,1.84c10.27-1.23,20.13-3.56,29.01-9.14
	c11.03-6.93,17.45-16.97,20.14-29.59c1.44-6.77,3.02-13.51,4.56-20.26c2.41-10.56,3.01-21.36,1.5-31.95
	c-1.71-12.01-8.57-21.63-17.24-30.02c-6.48-6.27-12.67-12.87-15.41-21.82c-2.27-7.41-2.45-14.87-0.96-22.51
	c0.76-3.89,1.45-7.75,3.06-11.37c1.3-2.92,3.2-5.44,6.64-5.9c4.14-0.56,7.14,3.99,5.99,8.57c-1.71,6.8-3.25,13.64-4.82,20.48
	c-1.28,5.59-2.49,11.2-3.79,17.07c13.56,0,27.12,0,40.86,0c1.86-4.87,2.55-10.18,3.81-15.33c1.59-6.51,2.6-13.17,4.4-19.62
	c2.59-9.29,3.5-18.37-0.87-27.37c0,0,0.03,0.03,0.03,0.03c-0.59,0.18-0.64-0.26-0.74-0.64c-4.05-6.26-10.14-9.49-17.01-11.75
	c-2.69-0.88-5.76-0.44-8.11-2.41c-9.03,0-18.05,0-27.08,0c-0.38,2.42-2.56,1.49-3.83,1.82c-19.65,5-33.25,16.11-37.77,36.67
	c-1.74,7.93-3.62,15.83-5.42,23.75c-2.79,12.24-1.9,23.84,6.01,34.2c3.46,4.52,7.38,8.64,11.21,12.84
	c6.31,6.93,12,14.26,14.69,23.46c1.97,6.48,3.3,13.15,2.64,19.88c-0.81,8.32-1.26,16.81-5.01,24.56c-1.1,2.27-2.63,4.06-5.12,5.03
	c-3.59,1.41-6.43-0.12-6.87-3.97c-0.33-2.9,0.01-5.82,0.62-8.62c2.29-10.4,4.92-20.72,7.13-31.13c0.68-3.2,2.18-6.3,1.71-9.71
	c-12.95-0.6-25.91-0.08-38.87-0.26c-1.46-0.02-1.98,0.75-2.29,2.11c-3.56,16.04-7.57,31.99-10.65,48.12
	c-2.61,13.64,1.5,21.27,11.11,28.95C810.62,515.7,811.47,515.86,811.55,517.11z M672.43,517.55c0.89-7.33,2.98-14.42,4.59-21.6
	c7.86-35.11,15.83-70.2,23.8-105.29c4.96-21.86,9.99-43.71,14.98-65.57c0.83-3.64,1.67-7.28,2.4-10.94c0.33-1.64,1.06-2.3,2.81-2.29
	c16.85,0.06,33.71-0.22,50.56,0.16c8.9,0.2,17.69,1.89,25.06,7.59c2.6,2.01,5.22,4.07,6.75,7.14c1.01,2.57,2.68,5.08,2.91,7.72
	c0.55,6.26,0.92,12.58-0.72,18.84c-1.19,4.53-2,9.16-2.97,13.74c-1.77,8.41-4.27,16.56-9.71,23.4
	c-7.28,9.15-16.83,14.09-28.62,14.75c3.14,0.8,6.34,1.35,9.48,2.14c6.08,1.52,11.21,4.23,13.2,10.83
	c1.83,6.06,0.92,12.08-0.25,18.03c-1.34,6.78-3.15,13.48-4.63,20.23c-1.87,8.53-3.26,17.17-5.5,25.6c-2.4,9.01-2.98,18.1-2.75,27.3
	c0.07,2.74,0.8,5.46,0.1,8.38c-13.63,0-27.15,0-40.67,0c-0.75,0-1.28-2.64-1.38-3.15c-0.39-2.06-0.16-4.29-0.16-6.38
	c0-3.6-0.34-7.32,0.15-10.89c0.62-4.54,2.07-8.92,2.9-13.42c0.72-3.86,1.69-7.68,2.58-11.51c1.11-4.76,2.28-9.5,3.36-14.27
	c1.6-7.04,3.35-14.05,4.65-21.15c1.5-8.22,1.08-13.42-7.38-15.17c-2.61-0.54-3.34,0.31-3.77,2.76c-0.89,5.02-2.11,9.99-3.25,14.97
	c-1.44,6.33-2.96,12.64-4.4,18.98c-1.53,6.74-3.01,13.5-4.52,20.25c-1.51,6.75-3.01,13.51-4.55,20.26
	c-1.42,6.2-2.88,12.39-4.32,18.56C699.47,517.55,685.95,517.55,672.43,517.55z M753.71,342.58c-4.21,18.51-8.4,36.93-12.58,55.34
	c7.86,1.3,12.89-0.91,14.96-6.88c2.41-6.94,3.66-14.19,5.28-21.33c1.03-4.56,1.68-9.25,3.22-13.63c3.4-9.63,0.53-14-9.53-13.71
	C754.75,342.38,754.43,342.47,753.71,342.58z M340.41,517.63c2.18-8.04,5.52-15.67,8.42-23.44c12.32-33.09,24.86-66.09,37.3-99.13
	c10.4-27.61,20.77-55.22,31.24-83.04c17.93,0,35.96,0,53.99,0c-0.17,3.1-0.21,6.22-0.54,9.3c-1.09,9.99-2.35,19.96-3.44,29.96
	c-1.06,9.78-1.93,19.58-2.99,29.36c-1.08,9.98-2.35,19.94-3.42,29.93c-1.09,10.2-1.97,20.43-3.08,30.63
	c-0.79,7.21-1.5,14.43-2.31,21.63c-0.59,5.21-0.78,10.48-1.66,15.63c-0.98,5.7-1.09,11.47-1.97,17.17
	c-0.94,6.12-1.26,12.34-1.92,18.51c-0.13,1.24-0.31,2.54-1.29,3.62c-13.83,0-27.68,0-41.53,0c-0.6-3.76,0.67-7.34,1.13-10.98
	c1.37-10.8,2.96-21.58,4.46-32.36c0.28-4.11,1.86-8.08,1.62-12.73c-5.97,0-11.64-0.01-17.31,0.01c-1.02,0-1.55,0.77-1.83,1.59
	c-3.52,10.39-7,20.8-10.49,31.2c-2.3,6.86-4.56,13.74-6.94,20.57c-0.5,1.44-1.09,2.8-3.3,2.76
	C363.19,517.64,351.8,517.67,340.41,517.63z M419.53,432.16c4.44-27.3,8.85-54.48,13.27-81.66c-0.28-0.06-0.56-0.13-0.84-0.19
	c-8.34,27.22-16.68,54.45-25.07,81.85C411.14,432.16,415.29,432.16,419.53,432.16z M621.01,487.84c0.96-4.55,1.8-8.81,2.76-13.04
	c1.97-8.71,4.02-17.4,6.02-26.11c1.5-6.52,2.97-13.04,4.45-19.56c0.66-2.91,1.51-5.8,1.91-8.76c0.29-2.1,1.14-2.57,3.14-2.55
	c9.23,0.09,18.45,0.01,27.68-0.01c1.26,0,2.53,0,3.84,0c2.27-9.91,4.47-19.52,6.67-29.13c-0.71-0.13-1.42-0.36-2.14-0.38
	c-5.5-0.14-10.99-0.24-16.49-0.35c-4.82,0-9.63,0-14.65,0c-0.56-3.6,0.96-6.66,1.63-9.79c1.83-8.54,4.03-17.01,5.82-25.56
	c0.56-2.7,1.51-5.3,1.72-8.11c0.16-2.09,1.45-3.07,3.93-3.03c10.63,0.18,21.26,0.08,32.35,0.08c1.86-9.9,5-19.5,6.19-29.53
	c-21.38-0.04-42.76-0.09-64.14-0.13c-3.96-0.01-7.92,0-12.04,0c-4.83,21.52-9.59,42.84-14.42,64.15
	c-4.93,21.76-9.92,43.5-14.89,65.25c-4.88,21.35-9.85,42.67-14.59,64.05c-0.9,4.07-2.6,8.05-2.18,12.37
	c24.12,0.01,48.23-0.03,72.35,0.1c3.11,0.02,4.1-0.96,4.62-4c1.12-6.49,2.75-12.89,4.33-19.29c0.55-2.21,0.94-4.37,0.77-6.64
	c-6.43-0.01-12.86-0.03-19.29-0.04C631.35,487.84,626.33,487.84,621.01,487.84z M545.64,341.64c-1.95,4.38-3.53,8.59-6.07,12.36
	c-0.22,0.71-0.36,1.45-0.67,2.11c-16.79,35.07-33.7,70.09-50.33,105.23c-5.64,11.93-12.88,23.23-15.1,36.61
	c-1.1,6.61-3.38,12.98-4.09,19.67c22.3,0.03,44.6,0.07,66.9,0.1c3.97,0.01,7.94-0.09,11.9,0.03c2.08,0.06,2.63-0.87,3.03-2.77
	c1.41-6.85,3.11-13.65,4.62-20.48c0.47-2.12,1.24-4.24,0.69-6.48c-6.95-0.12-13.91-0.24-20.86-0.35c-5.94-0.14-11.89,0.36-17.83-0.2
	c-0.17,0.26-0.37,0.45-0.61,0.09c-0.02-0.03,0.21-0.24,0.33-0.36c1.34-5.09,4.22-9.48,6.5-14.14
	c12.01-24.48,24.09-48.93,36.15-73.39c8.96-18.19,17.87-36.4,26.93-54.54c2.2-4.39,2.84-9.14,3.99-13.77
	c1.23-4.95,2.23-9.96,3.51-14.91c0.39-1.5,0.3-2.97,0.47-4.45c-26.75-0.02-53.5-0.04-80.25-0.05c-0.3,0-0.61,0.16-0.94,0.26
	c-2.01,9.85-4.8,19.51-6.4,29.43C520.05,341.64,532.59,341.64,545.64,341.64z M290.84,487.86c-0.52-3.37,0.81-6.1,1.41-8.83
	c2.52-11.43,5.19-22.83,7.65-34.28c2.62-12.18,5.86-24.22,8.56-36.38c2.54-11.44,5.14-22.85,7.75-34.27
	c2.16-9.45,4.26-18.92,6.47-28.36c2.43-10.37,4.51-20.82,6.77-31.24c0.16-0.73,0.5-1.41,0.76-2.11c-0.39-0.15-0.78-0.43-1.16-0.43
	c-12.67-0.03-25.33-0.01-38-0.07c-1.9-0.01-2.18,0.99-2.53,2.53c-3.05,13.67-6.2,27.31-9.31,40.96
	c-5.33,23.43-10.65,46.87-15.98,70.31c-5.42,23.83-10.93,47.64-16.24,71.49c-1.52,6.82-3.51,13.54-4.25,20.53
	c24.77,0.01,49.54,0.01,74.32,0.06c1.55,0,2.64-0.16,3.02-1.95c1.96-9.26,3.98-18.51,5.98-27.76c-7.02-0.06-14.04-0.12-21.06-0.19
	C300.32,487.86,295.61,487.86,290.84,487.86z M537.94,354.29c0,0,0.07-0.09,0.07-0.1c0,0,0.01-0.13,0.01-0.13l-0.07,0.11
	L537.94,354.29z"/>
<path class="st10" d="M124.32,517.59c18.02,0.05,36.05,0.36,54.06,0.02c8.09-0.15,16.14-1.59,23.69-4.95
	c11.81-5.26,19.27-14.49,24.07-26.15c3.91-9.5,5.57-19.6,7.9-29.54c1.19-5.1,2.19-10.21,3.04-15.36c1.11-6.8,1.34-13.61-1.01-20.26
	c-0.21-0.59-0.53-1.19-0.15-1.84c3.73,3.04,7.09,6.49,10.24,10.08c2.91,3.32,3.65,7.62,3.88,11.93c0.54,9.93-1.42,19.53-3.74,29.11
	c-2.47,10.18-4.16,20.54-8.44,30.25c-7.41,16.81-20.37,25.91-38.35,28.33c-14.21,1.91-28.5,0.6-42.74,0.94
	c-5.9,0.14-11.81-0.01-17.71,0.08c-1.63,0.02-2.78-0.51-3.96-1.63c-3.63-3.43-6.7-7.42-10.78-10.38
	C124.32,518.02,124.32,517.8,124.32,517.59z M876.18,530.45c14.75-5.15,25.88-14.28,30.26-29.79c3.41-12.07,6.31-24.3,8.36-36.7
	c1.17-7.09,1.83-14.27,0.27-21.34c-2.5-11.31-9.11-20.44-16.32-29.19c-4.53-5.5-9.75-10.34-15.1-15.76c1.45,0,2.38-0.03,3.31,0
	c12.97,0.49,25.95,0.36,38.93,0.39c1.95,0,2.98-0.32,3.41-2.65c1.18-6.37,2.8-12.65,4.24-18.97c0.89-3.9,1.78-7.8,2.67-11.7
	c2.25-9.9,4.58-21.05-1.36-30.2c-3.05-4.72-7.63-7.92-11.6-11.74c4.37,9,3.46,18.09,0.87,27.37c-1.8,6.45-2.81,13.11-4.4,19.62
	c-1.26,5.15-1.95,10.46-3.81,15.33c-13.74,0-27.29,0-40.86,0c1.3-5.87,2.51-11.48,3.79-17.07c1.56-6.83,3.11-13.68,4.82-20.48
	c1.15-4.58-1.85-9.13-5.99-8.57c-3.43,0.46-5.34,2.98-6.64,5.9c-1.61,3.62-2.3,7.48-3.06,11.37c-1.49,7.64-1.31,15.1,0.96,22.51
	c2.74,8.95,8.93,15.55,15.41,21.82c8.67,8.39,15.53,18,17.24,30.02c1.51,10.59,0.9,21.39-1.5,31.95
	c-1.54,6.75-3.11,13.49-4.56,20.26c-2.69,12.62-9.1,22.65-20.14,29.59c-8.88,5.58-18.75,7.91-29.01,9.14
	c-8.64,1.03-17.03-0.03-25.47-1.84c-3.22-0.69-5.98-2.82-9.38-2.67c-0.06,0.18-0.23,0.44-0.17,0.51
	c8.02,10.01,18.41,15.49,31.25,16.22c1.71,0,3.43,0,5.14,0.01c2.18,0.02,4.37,0.03,6.55,0.05c1.71-0.01,3.42-0.02,5.13-0.04
	C865.16,533.5,870.77,532.34,876.18,530.45z M418.51,529.56c0.44,0.47,1.38,0.65,2.08,0.65c13.71,0.04,27.42,0.03,41.45,0.03
	c1.13-10.22,2.29-20.26,3.36-30.32c1.58-14.89,3.07-29.79,4.67-44.67c1.62-15.08,3.35-30.14,4.99-45.22
	c1.43-13.07,2.81-26.15,4.22-39.23c1.59-14.77,3.21-29.53,4.78-44.3c0.11-1.02,0.32-2.13-0.67-2.98c-4.21-3.63-7.63-8.08-12.04-11.5
	c-0.17,3.1-0.21,6.22-0.54,9.3c-1.09,9.99-2.35,19.96-3.44,29.96c-1.06,9.78-1.93,19.58-2.99,29.36
	c-1.08,9.98-2.35,19.94-3.42,29.93c-1.09,10.2-1.97,20.43-3.08,30.63c-0.79,7.21-1.5,14.43-2.31,21.63
	c-0.59,5.21-0.78,10.48-1.66,15.63c-0.98,5.7-1.09,11.47-1.97,17.17c-0.94,6.12-1.26,12.34-1.92,18.51
	c-0.13,1.24-0.31,2.54-1.29,3.62c-13.83,0-27.68,0-41.53,0C410.46,522.18,414.78,525.59,418.51,529.56z M744.1,529.13
	c0.7,0.74,1.47,1.1,2.54,1.1c12.79-0.04,25.57-0.04,38.36-0.01c1.57,0,2.05-0.55,1.83-2.14c-0.33-2.43-0.44-4.9-0.59-7.35
	c-0.86-14.76,3.42-28.75,6.45-42.94c2.57-12.07,6.13-23.94,7.54-36.25c0.83-7.22-0.25-13.78-6.35-18.78
	c-2.4-1.97-4.69-4.2-6.68-7.02c8.47-2.99,15.14-7.83,19.97-15.15c4.37-6.62,6.38-14.02,7.95-21.67c1.83-8.86,4.62-17.53,4.32-26.77
	c-0.38-11.68-7.59-18.9-16.06-25.39c1.01,2.57,2.68,5.08,2.91,7.72c0.55,6.26,0.92,12.58-0.72,18.84c-1.19,4.53-2,9.16-2.97,13.74
	c-1.77,8.41-4.27,16.56-9.71,23.4c-7.28,9.15-16.83,14.09-28.62,14.75c3.14,0.8,6.34,1.35,9.48,2.14
	c6.08,1.52,11.21,4.23,13.2,10.83c1.83,6.06,0.92,12.08-0.25,18.03c-1.34,6.78-3.15,13.48-4.63,20.23
	c-1.87,8.53-3.26,17.17-5.5,25.6c-2.4,9.01-2.98,18.1-2.75,27.3c0.07,2.74,0.8,5.46,0.1,8.38c-13.63,0-27.15,0-40.67,0
	C736.86,521.51,740.48,525.32,744.1,529.13z M517.83,487.47c5.94,0.56,11.89,0.06,17.83,0.2c1.09-2.03,2.24-4.04,3.26-6.11
	c17.7-36.16,35.41-72.31,53.04-108.5c3.41-7,7.7-13.65,9.76-21.2c2.32-8.49,4.04-17.14,6.02-25.73c0.22-0.97,0.28-1.88-0.6-2.65
	c-4.17-3.66-7.6-8.1-12.04-11.48c-0.17,1.48-0.09,2.95-0.47,4.45c-1.27,4.94-2.28,9.95-3.51,14.91c-1.15,4.64-1.79,9.38-3.99,13.77
	c-9.06,18.14-17.97,36.35-26.93,54.54c-12.06,24.46-24.14,48.91-36.15,73.39c-2.28,4.65-5.16,9.04-6.5,14.14
	C517.64,487.29,517.73,487.38,517.83,487.47z M319.7,423.47c3.87-17,7.75-34,11.59-51c3.53-15.65,7.01-31.31,10.55-46.96
	c0.26-1.16,0.82-2.25-0.3-3.24c-3.76-3.31-7.25-6.92-11.31-9.89c-0.26,0.7-0.61,1.39-0.76,2.11c-2.26,10.41-4.33,20.87-6.77,31.24
	c-2.21,9.44-4.32,18.91-6.47,28.36c-2.61,11.42-5.21,22.84-7.75,34.27c-2.7,12.16-5.94,24.2-8.56,36.38
	c-2.46,11.45-5.13,22.85-7.65,34.28c-0.6,2.73-1.94,5.47-1.41,8.83c4.77,0,9.47,0,14.18,0C309.92,466.39,314.81,444.93,319.7,423.47
	z M682.73,528.38c1.23,1.4,2.63,1.87,4.5,1.86c12.14-0.09,24.28-0.17,36.42,0.01c2.29,0.03,3-0.74,3.34-2.64
	c0.61-3.43,1.23-6.87,1.84-10.3c0.42-2.32,0.97-4.64,1.3-6.98c0.31-2.23,0.3-4.54,1.07-6.68c0.57-1.58,0.35-3.21,0.5-4.88
	c0.16-1.68,0.45-3.35,0.8-5.01c0.7-3.31,1.65-6.57,2.27-9.9c0.72-3.86,1.69-7.68,2.58-11.51c1.11-4.76,2.28-9.5,3.36-14.27
	c1.6-7.04,3.35-14.05,4.65-21.15c1.5-8.22,1.08-13.42-7.38-15.17c-2.61-0.54-3.34,0.31-3.77,2.76c-0.89,5.02-2.11,9.99-3.25,14.97
	c-1.44,6.33-2.96,12.64-4.4,18.98c-1.53,6.74-3.01,13.5-4.52,20.25c-1.51,6.75-3.01,13.51-4.55,20.26
	c-1.42,6.2-2.88,12.39-4.32,18.56c-13.71,0-27.23,0-40.75,0C675.31,521.68,679.43,524.64,682.73,528.38z M642.1,462.07
	c2.35-10.46,4.74-20.92,7.15-31.53c11.38,0,22.64,0,33.97,0c2.21-9.48,4.39-18.79,6.52-28.11c0.18-0.77,0.26-1.65-0.52-2.38
	c-3.99-3.7-7.47-7.94-11.74-11.36c-2.2,9.61-4.4,19.22-6.67,29.13c-1.31,0-2.57,0-3.84,0c-9.23,0.02-18.45,0.1-27.68,0.01
	c-2-0.02-2.86,0.45-3.14,2.55c-0.4,2.95-1.25,5.84-1.91,8.76c-1.48,6.52-2.95,13.04-4.45,19.56c-2,8.7-4.04,17.4-6.02,26.11
	c-0.96,4.23-1.8,8.49-2.76,13.04c5.32,0,10.34,0,15.36,0C638.28,479.25,640.17,470.66,642.1,462.07z M351.85,529.34
	c0.62,0.64,1.34,0.94,2.28,0.94c11.06-0.05,22.13-0.06,33.19-0.07c1.4,0,2.2-0.33,2.74-1.97c5.65-16.9,11.58-33.7,17.11-50.63
	c1.09-3.35,2.55-4.22,5.62-3.2c0.28-4.11,1.86-8.08,1.62-12.73c-5.97,0-11.64-0.01-17.31,0.01c-1.02,0-1.55,0.77-1.83,1.59
	c-3.52,10.39-7,20.8-10.49,31.2c-2.3,6.86-4.56,13.74-6.94,20.57c-0.5,1.44-1.09,2.8-3.3,2.76c-11.38-0.17-22.77-0.14-34.16-0.18
	C344.23,521.53,348.04,525.44,351.85,529.34z M666.63,354.19c11.22,0,22.15-0.06,33.08,0.06c1.8,0.02,2.56-0.6,2.91-2.13
	c1.94-8.61,3.87-17.23,5.79-25.84c0.24-1.08,0.17-2.01-0.77-2.9c-3.98-3.74-7.87-7.56-11.8-11.35c-1.19,10.03-4.33,19.63-6.19,29.53
	c-11.09,0-21.72,0.1-32.35-0.08c-2.48-0.04-3.77,0.94-3.93,3.03c-0.21,2.81-1.16,5.41-1.72,8.11c-1.79,8.55-3.99,17.02-5.82,25.56
	c-0.67,3.14-2.19,6.19-1.63,9.79c5.02,0,9.83,0,14.65,0C661.44,376.75,664.02,365.53,666.63,354.19z M480.8,529.35
	c0.72,0.74,1.57,0.91,2.61,0.91c25.79-0.05,51.57-0.08,77.36-0.04c1.73,0,2.37-0.45,2.75-2.21c1.54-7.16,3.17-14.3,5.04-21.38
	c1.13-4.28,0.92-7.72-3.08-10.54c-3.28-2.31-5.3-6.11-8.97-8.07c0.55,2.24-0.22,4.36-0.69,6.48c-1.51,6.84-3.21,13.63-4.62,20.48
	c-0.39,1.91-0.95,2.83-3.03,2.77c-3.96-0.11-7.93-0.02-11.9-0.03c-22.3-0.03-44.6-0.07-66.9-0.1
	C473.19,521.54,476.99,525.44,480.8,529.35z M253.8,528.91c1.1,1.15,2.3,1.3,3.75,1.3c24.03-0.03,48.05-0.06,72.08,0.01
	c1.89,0.01,2.61-0.51,2.98-2.38c1.62-8.12,3.24-16.25,5.21-24.3c0.94-3.84,0.67-6.58-3.07-8.82c-2.61-1.57-4.7-4.02-7-6.11
	c-0.51-0.46-0.95-0.86-1.68-0.57c-2,9.25-4.02,18.5-5.98,27.76c-0.38,1.79-1.47,1.96-3.02,1.95c-24.77-0.05-49.54-0.05-74.32-0.06
	C246.45,521.42,250.18,525.12,253.8,528.91z M238.19,417.69c8.68-3.3,16.43-7.92,20.9-16.36c8.11-15.31,11.51-31.95,12.14-49.09
	c0.42-11.44-6.92-18.68-15.36-24.96c0.33,2.76,2.49,4.93,2.53,7.77c0.09,6.5,0.59,12.93-1.08,19.44
	c-2.23,8.73-3.53,17.71-6.66,26.21c-3.48,9.48-9.34,16.93-18.53,21.58c-5.31,2.69-10.83,4.63-16.75,5.72
	c0.55,0.41,1.09,0.6,1.65,0.73c3.93,0.91,7.84,1.73,11.48,3.7c3.21,1.73,4.82,4.89,7.43,7.13
	C235.59,417.63,237.38,418,238.19,417.69z M583.93,528.65c1.11,1.24,2.36,1.59,3.97,1.58c23.96-0.06,47.92-0.09,71.88-0.02
	c1.78,0.01,2.55-0.54,2.91-2.14c1.89-8.39,3.84-16.76,5.68-25.16c0.2-0.94,0.7-2.05-0.32-3.01c-4.2-3.94-7.91-8.37-12.38-12.03
	c0.17,2.26-0.22,4.43-0.77,6.64c-1.58,6.4-3.22,12.8-4.33,19.29c-0.52,3.04-1.51,4.02-4.62,4c-24.12-0.13-48.23-0.09-72.35-0.1
	C576.48,521.89,580.57,524.92,583.93,528.65z M850.33,436.8c0.47,3.41-1.04,6.51-1.71,9.71c-2.21,10.41-4.84,20.73-7.13,31.13
	c-0.62,2.8-0.95,5.72-0.62,8.62c0.44,3.85,3.28,5.38,6.87,3.97c2.49-0.98,4.02-2.76,5.12-5.03c3.75-7.76,4.2-16.24,5.01-24.56
	c0.65-6.72-0.67-13.39-2.64-19.88C853.57,439.47,852.37,437.61,850.33,436.8z M518.87,353.38c0.85,0.89,1.9,0.81,2.98,0.8
	c5.37-0.02,10.73-0.01,16.1-0.01l0.07-0.11c0,0-0.01,0.13-0.01,0.13c0.52-0.07,1.04-0.13,1.56-0.2c2.54-3.77,4.12-7.98,6.07-12.36
	c-13.05,0-25.59,0-38.13,0C511.3,345.55,515.1,349.46,518.87,353.38z M811.55,517.11c-0.07-1.24-0.93-1.4-1.91-1.38
	C810.15,516.35,810.39,517.36,811.55,517.11z M188.54,479.83c0.41-1.66,0.51-3.35,0.95-5.02c1.64-6.27,3-12.61,4.46-18.92
	c1.18-5.07,2.42-10.13,3.51-15.22c0.82-3.85,1.7-7.72,2.07-11.62c0.34-3.54-1.35-4.93-5.04-4.97c-1.72-0.02-3.44,0.08-5.15-0.03
	c-1.59-0.1-2.27,0.5-2.61,2.07c-1.84,8.3-3.79,16.58-5.68,24.88c-1.56,6.85-3.09,13.71-4.63,20.57c-1.24,5.48-2.48,10.96-3.72,16.45
	C181.17,489.53,186.52,487.98,188.54,479.83z M206.72,393.54c2.39-3.33,3.07-7.44,3.98-11.37c1.08-4.68,1.91-9.41,2.98-14.09
	c1.42-6.21,3.37-12.31,3.82-18.72c0.25-3.53-0.93-5.93-3.41-6.47c-2.71-0.59-5.47-0.84-8.37-0.28c-4.19,18.44-8.36,36.81-12.6,55.48
	C198.53,398.32,203.46,398.09,206.72,393.54z M923.27,322.83c0.01-0.51-0.27-0.69-0.74-0.64
	C922.63,322.57,922.68,323.02,923.27,322.83z M741.13,397.93c7.86,1.3,12.89-0.91,14.96-6.88c2.41-6.94,3.66-14.19,5.28-21.33
	c1.03-4.56,1.68-9.25,3.22-13.63c3.4-9.63,0.53-14-9.53-13.71c-0.31,0.01-0.63,0.1-1.35,0.21
	C749.5,361.1,745.32,379.51,741.13,397.93z M432.8,350.49c-0.28-0.06-0.56-0.13-0.84-0.19c-8.34,27.22-16.68,54.45-25.07,81.85
	c4.25,0,8.4,0,12.64,0C423.97,404.86,428.38,377.68,432.8,350.49z M517.55,487.2c-0.12,0.13-0.35,0.33-0.33,0.36
	c0.24,0.36,0.44,0.17,0.61-0.09C517.73,487.38,517.64,487.29,517.55,487.2z"/>
</svg>
