<?xml version="1.0" encoding="UTF-8" standalone="no"?>
<svg
   xmlns:dc="http://purl.org/dc/elements/1.1/"
   xmlns:cc="http://creativecommons.org/ns#"
   xmlns:rdf="http://www.w3.org/1999/02/22-rdf-syntax-ns#"
   xmlns:svg="http://www.w3.org/2000/svg"
   xmlns="http://www.w3.org/2000/svg"
   id="svg3359"
   height="347.7226"
   width="637.40826"
   version="1.1">
  <defs
     id="defs3361" />
  <metadata
     id="metadata3364">
    <rdf:RDF>
      <cc:Work
         rdf:about="">
        <dc:format>image/svg+xml</dc:format>
        <dc:type
           rdf:resource="http://purl.org/dc/dcmitype/StillImage" />
        <dc:title></dc:title>
      </cc:Work>
    </rdf:RDF>
  </metadata>
  <path
     d="m 266.21589,205.34128 c -22.51364,0 -40.82212,-18.35153 -40.82212,-40.88431 0,-22.4945 18.30848,-40.82212 40.82212,-40.82212 22.50886,0 40.79341,18.32762 40.79341,40.82212 0,22.53278 -18.28455,40.88431 -40.79341,40.88431 m 0,-107.334475 c -36.63131,0 -66.45973,29.809295 -66.45973,66.450165 0,36.66001 29.82842,66.50279 66.45973,66.50279 36.66958,0 66.47408,-29.84278 66.47408,-66.50279 0,-36.64087 -29.8045,-66.450165 -66.47408,-66.450165"
     id="path30"
     style="fill:#000000;fill-opacity:1;fill-rule:nonzero;stroke:none" />
  <path
     d="m 127.2786,123.51669 c 13.77801,0 25.03004,11.26159 25.03004,25.11615 v 80.25208 h 25.49409 v -80.34298 c 0,-27.86218 -22.68108,-50.533695 -50.52413,-50.533695 -14.32338,0 -28.06789,6.090075 -37.69814,16.715395 l -0.20572,0.22485 -0.21049,-0.22485 C 79.53878,104.09832 65.87559,98.008245 51.59527,98.008245 c -27.94351,0 -50.67722,22.671515 -50.67722,50.533695 v 80.34298 h 25.58977 v -80.25208 c 0,-13.85455 11.25682,-25.11615 25.08745,-25.11615 13.76843,0 25.00612,11.26159 25.00612,25.11615 v 80.25208 h 25.56585 v -80.25208 c 0,-13.85455 11.23768,-25.11615 25.11136,-25.11615"
     id="path34"
     style="fill:#000000;fill-opacity:1;fill-rule:nonzero;stroke:none" />
  <path
     d="m 418.63457,205.34128 c -22.5567,0 -40.86996,-18.35153 -40.86996,-40.88431 0,-22.4945 18.31326,-40.82212 40.86996,-40.82212 22.53756,0 40.8556,18.32762 40.8556,40.82212 0,22.53278 -18.31804,40.88431 -40.8556,40.88431 M 485.08955,70.991395 c 0,-7.00382 -5.7409,-12.71595 -12.7973,-12.71595 -7.023,0 -12.76859,5.71213 -12.76859,12.71595 v 41.190495 l -0.42578,-0.33967 c -11.76392,-9.06573 -25.74764,-13.835415 -40.46331,-13.835415 -36.66958,0 -66.49322,29.809295 -66.49322,66.450165 0,36.66001 29.82364,66.50279 66.49322,66.50279 36.63609,0 66.45498,-29.81885 66.45498,-66.45016 z"
     id="path38"
     style="fill:#000000;fill-opacity:1;fill-rule:nonzero;stroke:none" />
  <path
     d="m 507.16495,60.358895 c -3.234,0 -6.4872,-1.21036 -8.9653,-3.70762 l -26.0586,-26.05861 -26.06816,26.05861 c -4.95147,4.9419 -12.95515,4.9419 -17.90184,0 -4.96582,-4.96104 -4.96582,-12.98386 0,-17.91619 l 35.0191,-35.02866 c 4.9419,-4.9419 12.9647,-4.9419 17.921,0 l 35.0143,35.02866 c 4.961,4.93233 4.961,12.95515 0,17.91619 -2.4782,2.49726 -5.7217,3.70762 -8.9605,3.70762"
     id="path42"
     style="fill:#ae006e;fill-opacity:1;fill-rule:nonzero;stroke:none" />
  <path
     d="m 570.91495,123.63246 c 22.5376,0 40.87,18.32762 40.87,40.8269 0,22.53278 -18.3324,40.87952 -40.87,40.87952 -22.5088,0 -40.8316,-18.34674 -40.8316,-40.87952 0,-22.49928 18.3228,-40.8269 40.8316,-40.8269 m 0,107.32969 c 14.8305,0 28.8429,-4.77925 40.4921,-13.83541 l 0.4449,-0.3301 v 12.08446 h 25.5563 v -64.36911 c 0,-36.69829 -29.8332,-66.502795 -66.4933,-66.502795 -36.6361,0 -66.431,29.804505 -66.431,66.450165 0,36.66002 29.7949,66.50279 66.431,66.50279"
     id="path46"
     style="fill:#000000;fill-opacity:1;fill-rule:nonzero;stroke:none" />
  <path
     d="M 308.04026,346.54333 V 302.0088 c 0,-14.78743 -8.12328,-23.26473 -22.28879,-23.26473 -13.5675,0 -23.80054,10.63968 -23.80054,23.90579 v 43.89347 h -8.07066 v -74.84136 h 8.07066 v 10.25696 c 5.7504,-6.71199 14.35208,-11.15636 23.95841,-11.15636 18.64815,0 30.23985,11.96008 30.23985,31.20622 v 44.53453 z"
     id="path50"
     style="fill:#000000;fill-opacity:1;fill-rule:nonzero;stroke:none" />
  <path
     d="m 406.0985,346.54333 c -7.01339,0 -12.85947,-2.49248 -16.90197,-7.22389 -3.92291,-4.60223 -5.99439,-11.08937 -5.99439,-18.76774 v -40.75514 h -10.20912 v -8.09458 h 10.20912 v -14.81614 h 8.10893 v 14.81614 h 19.648 v 8.09458 h -19.648 v 40.75514 c 0,5.12848 1.05248,9.27145 3.11918,12.30452 2.67906,3.9229 7.08993,5.91784 13.11781,5.91306 0.39229,0 0.78937,-0.005 1.20558,-0.0239 l 2.20543,-0.10526 v 7.64966 l -1.99972,0.12917 c -1.00943,0.0718 -1.93275,0.12439 -2.86085,0.12439"
     id="path54"
     style="fill:#000000;fill-opacity:1;fill-rule:nonzero;stroke:none" />
  <path
     d="m 599.97985,346.54333 v -74.84136 h 8.2238 v 9.65896 c 0.6697,-0.83721 1.3682,-1.5883 2.1049,-2.27242 5.6213,-4.99931 12.8165,-8.2668 20.8106,-8.2668 1.4256,0 2.8847,0.0861 4.3391,0.24877 l 1.3539,0.17701 v 7.63052 l -1.6553,-0.13873 c -1.0621,-0.0861 -2.1193,-0.13874 -3.1479,-0.13874 -6.8077,0 -12.6585,2.67427 -16.4666,6.37711 -4.674,4.17167 -7.3387,10.61098 -7.3387,17.6722 v 43.89347 z"
     id="path58"
     style="fill:#000000;fill-opacity:1;fill-rule:nonzero;stroke:none" />
  <path
     d="M 36.67436,347.7202 C 16.45227,347.7202 0,330.59816 0,309.53886 c 0,-21.3559 16.45227,-38.73628 36.67436,-38.73628 14.70132,0 26.95322,7.9989 32.76581,21.39896 l 0.35402,0.80851 -7.95105,2.19108 -0.27748,-0.57887 c -4.73619,-9.91729 -13.81149,-15.6055 -24.8913,-15.6055 -15.77294,0 -28.60371,13.69189 -28.60371,30.5221 0,16.59102 12.83077,30.09155 28.60371,30.09155 11.35728,0 20.45172,-5.64037 24.95349,-15.46677 l 0.27269,-0.598 7.79319,2.18151 -0.34445,0.80372 C 63.60844,339.80742 51.39482,347.7202 36.67436,347.7202"
     id="path62"
     style="fill:#000000;fill-opacity:1;fill-rule:nonzero;stroke:none" />
  <path
     d="m 186.67471,302.68096 c -3.01394,-13.76844 -14.59128,-23.66181 -27.8574,-23.66181 -13.31873,0 -24.84824,9.89337 -27.7378,23.66181 z m -27.02498,45.04163 c -21.03537,0 -37.50678,-16.7728 -37.50678,-38.18133 0,-21.36069 16.45227,-38.73628 36.67436,-38.73628 9.47716,0 18.452,3.81765 25.26446,10.74491 7.27651,7.4009 11.54386,17.7631 11.41469,27.72824 l -0.0383,1.48783 H 130.2662 c 0.85634,16.50968 13.36179,28.86683 29.3835,28.86683 12.17536,0 20.64309,-5.13805 25.15921,-15.27062 l 0.24399,-0.55017 8.11371,1.44957 -0.35402,0.87069 c -5.67864,14.12724 -17.14596,21.59032 -33.16289,21.59032"
     id="path66"
     style="fill:#000000;fill-opacity:1;fill-rule:nonzero;stroke:none" />
  <path
     d="m 529.69675,302.68096 c -3.0139,-13.76844 -14.6009,-23.66181 -27.8717,-23.66181 -13.3236,0 -24.8531,9.89337 -27.7426,23.66181 z m -27.0489,45.04163 c -21.0258,0 -37.502,-16.7728 -37.502,-38.18133 0,-21.36069 16.4571,-38.73628 36.6792,-38.73628 9.4867,0 18.4615,3.81765 25.2788,10.74491 7.2765,7.4009 11.5438,17.7631 11.4194,27.72824 l -0.048,1.48783 h -65.2063 c 0.8563,16.50968 13.3666,28.86683 29.3787,28.86683 12.1945,0 20.667,-5.13805 25.1879,-15.27062 l 0.2392,-0.55017 8.1137,1.44957 -0.354,0.87069 c -5.6786,14.12724 -17.1555,21.59032 -33.1868,21.59032"
     id="path70"
     style="fill:#000000;fill-opacity:1;fill-rule:nonzero;stroke:none" />
</svg>
