<?xml version="1.0" encoding="utf-8"?>
<!-- Generator: Adobe Illustrator 21.0.0, SVG Export Plug-In . SVG Version: 6.00 Build 0)  -->
<svg version="1.1" id="Layer_1" xmlns="http://www.w3.org/2000/svg" xmlns:xlink="http://www.w3.org/1999/xlink" x="0px" y="0px"
	 viewBox="0 0 1190.55 841.89" style="enable-background:new 0 0 1190.55 841.89;" xml:space="preserve">
<style type="text/css">
	.st0{fill:#E13B41;}
	.st1{fill:#100E0D;}
	.st2{fill:#FDFEFD;}
	.st3{fill:#DF3A41;}
	.st4{fill:#0D1B24;}
	.st5{fill:#0D1B23;}
	.st6{fill:#A8B1B7;}
	.st7{fill:#DF3A40;}
	.st8{fill:#262223;}
	.st9{fill:#E1383C;}
	.st10{fill:#090709;}
	.st11{fill:#DC383C;}
	.st12{fill:#AAB0B2;}
	.st13{fill:#FDFEFB;}
	.st14{fill:#0A080A;}
	.st15{fill:#0C1B23;}
	.st16{fill:#E03B3F;}
	.st17{fill:#C4CDD3;}
	.st18{fill:#C3CCD2;}
	.st19{fill:#E5383F;}
	.st20{fill:#251F24;}
	.st21{fill:#FFFFFF;}
	.st22{fill:#E03A3F;}
	.st23{fill:#242021;}
	.st24{fill:#0E1C25;}
	.st25{fill:#271F23;}
	.st26{fill:#DC383D;}
	.st27{fill:#030303;}
	.st28{fill:#D31E48;}
</style>
<path class="st19" d="M429.16,364.1c2.81-1.69,1.79-4.74,2.13-7.06c4.56-30.7,15.37-59.04,31.39-85.55
	c15.4-25.48,35.82-46.62,56.85-67.33c17.57-17.29,34.91-34.82,52.31-52.28c17.22-17.28,34.39-34.62,51.59-51.92
	c0.64-0.65,1.4-1.19,1.55-2.18c10.44,0,20.89,0,31.33,0c0.39,1.18-0.63,1.58-1.24,2.19c-34.73,34.85-69.69,69.47-104.09,104.65
	c-16.23,16.59-33.54,32.17-48.29,50.17c-27.47,33.51-44.58,71.51-48.68,114.86c-3.88,41.01,3.55,80.07,21.31,117.24
	c10.78,22.57,24.72,42.83,42.73,60.23c5.44,5.25,11.35,9.95,17.21,14.22c-5.17,5.23-10.23,10.35-15.84,16.03
	c-51.18-41.74-80.31-95.91-88.84-161.53c0.32-1.41,0.07-2.57-1.41-3.18C429.16,396.47,429.16,380.29,429.16,364.1z M686.07,97.79
	c-0.41,0.5-0.77,1.05-1.23,1.51c-29.9,29.88-59.82,59.73-89.69,89.63c-19.73,19.75-39.18,39.78-59.14,59.29
	c-12.93,12.64-24.76,26.09-34.2,41.51c-18.07,29.49-27.61,61.51-28.37,96.19c-0.59,27.07,3.99,53.14,13.78,78.34
	c9.48,24.39,23.32,46.01,41.67,64.65c6.56,6.66,13.6,12.87,20.75,17.51c5.43-5.3,10.57-10.32,15.76-15.38
	c-0.77-0.55-1.7-1.26-2.66-1.92c-16.24-11.2-29.42-25.35-39.58-42.18c-24.98-41.36-32.24-85.91-22.34-133.05
	c6.8-32.4,22.13-60.5,45.53-84.08c36.03-36.31,72.52-72.15,108.33-108.69c19.73-20.13,39.83-39.88,59.74-59.84
	c1.07-1.08,2.65-1.78,2.99-3.49C706.96,97.79,696.51,97.79,686.07,97.79z M745.6,97.79c0.3,0.94-0.38,1.42-0.93,1.97
	c-32.24,32.31-64.52,64.59-96.71,96.95c-28.95,29.1-58.34,57.75-86.81,87.32c-13.25,13.77-23.55,29.47-31.17,46.94
	c-11.77,26.99-15.97,55.17-12.03,84.35c3.96,29.31,15.59,55.29,35.67,77.21c8.29,9.05,17.63,16.88,27.22,22.73
	c5.51-5.28,10.64-10.18,15.96-15.28c-1.16-0.75-2.32-1.54-3.52-2.29c-13.19-8.16-23.89-18.92-32.31-31.85
	c-15.7-24.11-22.69-50.62-21.34-79.38c1.57-33.18,13.91-61.95,36.72-85.77c24.37-25.45,49.59-50.07,74.49-75
	c41.59-41.65,83.23-83.25,124.81-124.9c0.83-0.84,2.43-1.29,2.06-3C767.01,97.79,756.3,97.79,745.6,97.79z M806.69,97.79
	c-0.18,1.14-1.12,1.71-1.85,2.44c-40.46,40.74-81.35,81.05-121.62,121.97c-28.27,28.72-56.68,57.31-85.56,85.41
	c-25.66,24.97-38.56,54.7-36.92,90.58c0.81,17.76,5.69,34.34,14.63,49.69c9.12,15.67,21.61,27.9,37.13,36.51
	c5.31-5.3,10.35-10.32,15.43-15.4c-0.04-0.07-0.1-0.37-0.28-0.5c-1.71-1.19-3.47-2.31-5.18-3.51
	c-22.4-15.82-35.87-37.22-38.85-64.55c-2.44-22.31,4.24-42.44,16.71-60.87c7.61-11.25,17.71-20.21,27.13-29.73
	c51.06-51.57,102.41-102.84,153.67-154.2c18.25-18.29,36.55-36.54,54.78-54.85c0.84-0.84,2.43-1.29,2.1-3
	C827.58,97.79,817.13,97.79,806.69,97.79z M867,97.79c-0.14,0.36-0.19,0.81-0.44,1.06c-12.48,12.41-24.92,24.84-37.18,37.47
	c-17.27,17.78-35.03,35.08-52.53,52.62c-50.59,50.7-101.09,101.47-151.75,152.09c-20.31,20.3-26.98,50.11-16.3,76.72
	c6.3,15.69,17.2,27.18,32.95,33.77c1.32,0.55,2.75,1.67,4.3,0.14c4.77-4.71,9.6-9.37,14.82-14.44c-9.18-4.29-16.59-9.51-22.44-16.72
	c-6.38-7.86-10.59-16.6-11.09-26.92c-0.78-16.04,6.23-28.99,16.93-39.84c39.22-39.76,78.74-79.22,118.2-118.73
	c44.35-44.41,88.76-88.75,133.11-133.16c1.26-1.26,3.01-2.14,3.54-4.06C888.41,97.79,877.71,97.79,867,97.79z"/>
<path class="st20" d="M913.31,404.87c0,2.08,0.01,4.17,0.01,6.25c-2.84,37.48-14.93,71.82-34.85,103.57
	c-14.46,23.05-33.09,42.49-52.25,61.57c-37.15,37-74.05,74.26-111.06,111.4c-0.91,0.91-1.96,1.68-2.94,2.52
	c-8.7-0.08-17.41-0.14-26.11-0.28c-1.35-0.02-2.9,0.58-4-0.82c35.81-35.97,71.65-71.9,107.42-107.91
	c14.53-14.62,29.36-28.98,43.25-44.19c27.81-30.44,46.36-65.73,53.88-106.57c6.43-34.93,3.67-69.18-6.77-102.96
	c-8.99-29.11-23.08-55.45-42.88-78.66c-8.07-9.46-17.03-17.98-27.1-25.31c-0.83-0.6-1.63-1.24-2.19-1.67
	c5.17-5.25,10.24-10.39,15.46-15.69c13.72,10.09,25.9,22.17,36.7,35.67c23.72,29.67,39.66,63.12,48.26,100.08
	c2.66,11.41,4.46,22.99,5.18,34.71c0.01,2.34,0.03,4.68,0.04,7.02C913.35,390.7,913.33,397.79,913.31,404.87z M655.21,687.29
	c19.03-19.16,38.02-38.36,57.08-57.5c35.45-35.59,71.52-70.59,106.23-106.89c33.2-34.74,49.59-77.17,51.17-125.13
	c0.71-21.6-2.33-42.82-8.65-63.54c-9.24-30.3-24.57-57.05-46.77-79.69c-6.64-6.77-13.74-13.12-21.01-17.73
	c-5.43,5.26-10.6,10.26-15.86,15.36c21.84,14.25,38.14,33.67,49.71,56.96c18.01,36.25,23.48,74.47,16.3,114.33
	c-5.97,33.15-20.18,62.42-43.65,86.64c-30.52,31.48-62.12,61.89-92.74,93.28c-16.76,17.19-33.95,33.97-50.9,50.97
	c-11.79,11.82-23.51,23.71-35.26,35.56c10.5,0.01,21.01,0.01,31.51,0.02C653.31,689.05,654.3,688.21,655.21,687.29z M594.6,687.15
	c25.23-25.34,50.42-50.71,75.69-76.02c35.22-35.28,70.49-70.52,105.75-105.76c6.93-6.93,13.51-14.16,19.21-22.15
	c26.66-37.37,36.56-78.76,28.33-123.93c-5.24-28.79-18.59-53.72-39.74-74.22c-6.92-6.71-14.38-12.73-22.22-17.44
	c-5.4,5.4-10.45,10.46-15.64,15.64c9.65,5.31,18.28,12.24,25.65,20.57c19.89,22.5,30.23,49.12,31.8,78.87
	c1.91,36.19-8.85,68.6-33.1,95.64c-15.75,17.56-32.91,33.86-49.58,50.59c-51.66,51.88-103.39,103.69-155.08,155.53
	c-1.74,1.75-3.39,3.58-5.08,5.38c10.28,0.06,20.57,0.12,30.85,0.18C592.5,689.08,593.6,688.16,594.6,687.15z M533.73,687.39
	c57.61-57.74,115.21-115.49,172.82-173.24c15.95-15.98,32.68-31.26,47.71-48.06c36.75-41.07,37.85-102,3.32-144.91
	c-7.56-9.39-16.81-16.96-26.55-21.95c-5.58,5.51-10.69,10.57-15.78,15.59c8.96,5.35,17.32,12.16,24.18,20.68
	c16.75,20.79,23.49,44.33,18.97,70.81c-3.64,21.35-14.65,38.8-29.61,53.86c-49.13,49.43-98.41,98.7-147.64,148.03
	c-26.91,26.97-53.84,53.92-80.76,80.89c1.1,1.39,2.65,0.8,4,0.82c8.7,0.14,17.41,0.19,26.11,0.28
	C531.58,689.26,532.72,688.4,533.73,687.39z M473.5,687.29c22.45-22.58,44.85-45.22,67.35-67.75
	c58.85-58.92,117.77-117.75,176.6-176.69c23.22-23.27,28.37-55.74,13.34-84.32c-6.59-12.55-16.64-21.57-29.85-26.91
	c-1.33-0.54-2.67-1.52-4.23,0.07c-4.63,4.72-9.41,9.29-14.43,14.21c4.79,2.69,9.23,4.82,13.08,7.93
	c12.82,10.36,21.1,23.19,20.38,40.2c-0.6,14.23-7.53,25.86-17.3,35.77c-29.6,30.02-59.6,59.63-89.25,89.61
	c-44.42,44.92-89.29,89.4-133.95,134.09c-12.07,12.09-24.05,24.27-36.08,36.4c10.49,0.01,20.99,0.01,31.48,0.02
	C471.59,689.05,472.58,688.21,473.5,687.29z M560,690.7c0.25-0.28,0.5-0.56,0.75-0.85C560.26,689.93,559.98,690.19,560,690.7z"/>
</svg>
