<?xml version="1.0" encoding="utf-8"?>
<!-- Generator: Adobe Illustrator 21.0.0, SVG Export Plug-In . SVG Version: 6.00 Build 0)  -->
<svg version="1.1" id="Layer_1" xmlns="http://www.w3.org/2000/svg" xmlns:xlink="http://www.w3.org/1999/xlink" x="0px" y="0px"
	 viewBox="0 0 1190.55 841.89" style="enable-background:new 0 0 1190.55 841.89;" xml:space="preserve">
<style type="text/css">
	.st0{fill:#E13B41;}
	.st1{fill:#100E0D;}
	.st2{fill:#FDFEFD;}
	.st3{fill:#DF3A41;}
	.st4{fill:#0D1B24;}
	.st5{fill:#0D1B23;}
	.st6{fill:#A8B1B7;}
	.st7{fill:#DF3A40;}
	.st8{fill:#262223;}
	.st9{fill:#E1383C;}
	.st10{fill:#090709;}
	.st11{fill:#DC383C;}
	.st12{fill:#AAB0B2;}
	.st13{fill:#FDFEFB;}
	.st14{fill:#0A080A;}
	.st15{fill:#0C1B23;}
	.st16{fill:#E03B3F;}
	.st17{fill:#C4CDD3;}
	.st18{fill:#C3CCD2;}
	.st19{fill:#E5383F;}
	.st20{fill:#251F24;}
	.st21{fill:#FFFFFF;}
	.st22{fill:#E03A3F;}
	.st23{fill:#242021;}
	.st24{fill:#0E1C25;}
	.st25{fill:#271F23;}
	.st26{fill:#DC383D;}
	.st27{fill:#030303;}
	.st28{fill:#D31E48;}
</style>
<path class="st27" d="M622.48,569.13c0.23,1.12,0.58,2.1,0.6,3.09c0.07,3.82,0.03,7.63,0.03,11.64c-6.69,1.51-13.32,2.15-19.96,2.4
	c-38.75,1.46-73.96-9.78-106.11-30.76c-23.45-15.3-41.27-36.01-54.51-60.67c-9.43-17.56-15.62-36.25-18.91-55.86
	c-1.42-8.44-2.06-16.97-2.2-25.57c-0.4-25.64-0.66-51.29-0.42-76.93c0.16-16.23,0.21-32.45,0.22-48.68c0-1.15,0.13-2.11,1.04-3.01
	c4.46-4.37,8.84-8.83,13.27-13.24c0.31-0.31,0.73-0.49,1.52-1.01c0.15,3,0.39,5.64,0.41,8.27c0.05,8.77-0.04,17.54,0.04,26.31
	c0.04,4.28,0.21,8.56,0.54,12.83c0.21,2.64-0.62,5.14-0.61,7.76c0.07,28.92-0.34,57.84,0.14,86.75
	c0.62,37.63,12.53,71.41,36.25,100.85c6.34,7.87,13.26,15.24,21.18,21.45c15.8,12.39,33.04,22.29,52.24,28.59
	c18.14,5.95,36.73,8.47,55.77,7.79C609.48,570.91,615.94,570.27,622.48,569.13z M611.25,508.16c-13.48,1.87-26.95,1.96-40.16-1.74
	c-24.19-6.78-43.04-20.99-56.84-41.9c-9.23-13.99-14.85-29.37-15.37-46.18c-0.59-19.01-0.18-38.04-0.31-57.06
	c-0.35-49.62-0.27-99.24-0.37-148.85c0-1.05,0.24-2.18-0.25-2.76c-4.58,4.29-9,8.53-13.54,12.63c-1.23,1.12-1.64,2.26-1.64,3.87
	c-0.06,28.91-0.25,57.83-0.24,86.74c0.01,34.88,0.19,69.76,0.26,104.64c0.01,5.89,0.66,11.73,1.93,17.45
	c5.75,25.73,17.86,47.82,38.38,64.72c28.65,23.61,61.36,31.21,97.66,23.82c0.76-0.16,1.68-0.33,1.74-1.15
	c0.36-5.35,0.47-10.71,0.01-16.24C618.51,506.87,614.9,507.65,611.25,508.16z M620.99,539.13c-9.28,1.76-18.64,2.31-28.07,2.07
	c-13.75-0.35-27.23-2.48-40.13-7.23c-27.29-10.06-48.49-27.87-64.42-52.03c-13.75-20.84-20.77-43.71-20.72-68.79
	c0.12-54.94,0.03-109.87,0.05-164.81c0-2.67-0.46-5.26-0.64-6.65c-4.3,3.82-8.99,8.03-13.73,12.19c-1.09,0.95-1.35,2.05-1.35,3.44
	c0.03,52.59,0,105.18,0.05,157.76c0.01,10.56,1.66,20.94,4.23,31.16c6.97,27.69,20.34,51.66,41.3,71.31
	c26.79,25.12,58.62,37.96,95.14,39.38c9.3,0.36,18.58-0.55,27.79-1.97c1.36-0.21,2.28-0.7,2.27-2.26
	c-0.02-4.46-0.01-8.91-0.01-13.72C621.88,539.04,621.43,539.04,620.99,539.13z M545.53,160.33c-1.53,1.37-2.05,2.82-2.04,4.85
	c0.23,35.72-0.17,71.43,0.27,107.15c0.29,23.77,0.06,47.54,0.06,71.31c0,22.95,0.06,45.9-0.02,68.85
	c-0.05,16.54,7.04,29.65,19.32,40.11c10.84,9.23,23.69,12.88,37.81,11.92c7.11-0.48,13.88-2.38,20.04-6.14
	c0.81-0.49,1.55-0.9,1.56-2.08c0.03-4,0.33-8.02,0.16-12.01c-0.09-2.1,0.17-4.36-0.88-6.36c-11.13,9.21-23.24,12.68-37.21,7.94
	c-12.92-4.39-23.84-18.87-23.75-32.99c0.13-19.2,0.19-38.4-0.15-57.6c-0.45-25.17-0.09-50.36-0.25-75.53
	c-0.26-42.63-0.05-85.27-0.05-127.9c0-1.83,0.07-3.7-0.56-4.75C555.1,151.48,550.37,155.97,545.53,160.33z M514.12,192.03
	c-0.95,0.91-0.84,1.97-0.84,3.09c0,71.54,0.02,143.09-0.02,214.63c0,7.57,0.89,15.01,2.61,22.37c7.54,32.3,35.58,58.09,69.96,62.44
	c11.02,1.39,21.85,0.25,32.57-2.74c3.26-0.91,4.53-2.31,4.37-5.59c-0.18-3.74-0.04-7.49-0.04-11.6c-1.12,0.43-1.53,0.6-1.95,0.75
	c-9.84,3.62-19.98,4.94-30.4,3.89c-20.34-2.06-36.35-11.83-48.55-27.95c-7.44-9.83-12.38-20.91-12.47-33.36
	c-0.35-50.55,0.11-101.1-0.28-151.65c-0.21-27.33-0.03-54.66-0.04-81.99c0-1.84,0.21-3.72-0.95-5.89
	C523.31,183.08,518.74,187.58,514.12,192.03z"/>
<path class="st28" d="M564.85,256.96c0-4.86-0.02-9.5,0.01-14.15c0.01-1.41,0.94-1.8,2.22-1.96c13.25-1.69,26.49-2.08,39.82-0.79
	c16.04,1.54,31.56,5.09,46.6,10.79c21.68,8.21,41.11,20.09,58.11,35.9c26.85,24.96,43.4,55.69,51.14,91.34
	c3.07,14.17,4.3,28.52,4.23,43.01c-0.1,19.4-0.2,38.81,0.03,58.21c0.23,19.31,0.06,38.61,0.22,57.91c0.01,1.73-0.46,2.94-1.7,4.15
	c-4.26,4.16-7.62,9.2-12.42,12.84c-0.43,0.33-0.78,0.83-1.52,0.74c-1.01-1.19-0.92-2.69-0.92-4.17c0-31.81,0.06-63.62-0.03-95.42
	c-0.05-16.97,0.09-33.95-0.63-50.9c-0.85-19.83-5.99-38.76-14.47-56.71c-15.79-33.41-39.52-59.4-72.72-76.14
	c-20.29-10.23-41.89-15.65-64.66-16.52c-10.67-0.41-21.21,0.37-31.74,1.85C566.06,257.01,565.69,256.96,564.85,256.96z
	 M736.04,571.96c0.65-0.66,0.69-1.48,0.7-2.34c0.2-13.78,0.12-27.57,0.07-41.35c-0.05-13.88-0.04-27.77-0.31-41.66
	c-0.47-24.8-0.26-49.62-0.37-74.43c-0.03-6.43-0.6-12.84-1.56-19.19c-3.14-20.72-10.35-39.93-21.73-57.54
	c-11.96-18.51-26.93-34.3-45.8-45.61c-25.41-15.24-53.2-22.41-83.02-20.68c-6.41,0.37-12.75,1.18-19.17,2.67
	c0.26,5.14-1.13,10.14,0.41,15.18c2.73-0.33,5.3-0.62,7.87-0.95c17.17-2.18,34.24-1.69,50.98,2.78
	c26.91,7.18,49.33,21.49,66.82,43.3c16.68,20.8,27.08,44.29,28.98,71c0.92,12.91,0.36,25.91,0.5,38.88
	c0.2,17.81-0.07,35.62,0.24,53.43c0.41,23.4,0.28,46.82,0.37,70.23c0.02,5.22,0,10.45,0.01,15.67c0,1.48-0.06,2.99,1.29,4.56
	C726.92,581.24,731.48,576.6,736.04,571.96z M693.44,614.83c3.58-3.55,7.07-7.18,10.72-10.64c1.47-1.39,2.07-2.81,2.05-4.86
	c-0.22-28.91,0.21-57.82-0.27-86.73c-0.32-19.3,0.18-38.6-0.27-57.91c-0.3-12.96-0.08-25.93-0.05-38.89
	c0.02-7.19-0.67-14.34-1.86-21.41c-4.29-25.53-16.19-47.19-35.16-64.53c-24.8-22.68-54.18-32.96-87.92-29.6
	c-4.43,0.44-8.91,0.71-13.19,2.19c-1.88,0.65-2.9,1.51-2.74,3.8c0.25,3.53,0.06,7.08,0.06,10.63c0,3.44,0.07,3.46,3.51,2.62
	c13.29-3.23,26.69-3.72,40.19-1.47c9.93,1.65,18.93,5.56,27.89,10.1c22.5,11.39,37.54,29.29,46.99,52.16
	c4.67,11.31,5.71,23.47,5.94,35.6c0.38,19.39,0.1,38.78,0.28,58.18c0.32,33.19,0.23,66.38,0.57,99.58
	c0.13,13.43,0.02,26.86,0.03,40.29c0,0.91-0.16,1.87,0.72,2.8C692.16,616.44,692.73,615.53,693.44,614.83z M630.33,678.81
	c4.55-3.87,8.45-8.41,12.8-12.49c1.47-1.38,2.11-2.84,2.07-4.89c-0.17-8.39-0.17-16.78-0.26-25.17c-0.18-15.2,0.18-30.39-0.28-45.59
	c-0.46-15.19-0.18-30.4-0.26-45.59c-0.23-42.35-0.06-84.69-0.06-127.04c0-2.61,0.03-5.21-0.29-7.82
	c-2.43-19.73-12.05-34.82-29.91-43.63c-14.98-7.38-30.5-7.35-45.75,0.13c-2.45,1.2-3.69,2.65-3.36,5.58
	c0.28,2.47,0.08,5.01-0.16,7.53c-0.27,2.71,0,5.46,0.59,8.15c0.33-0.05,0.44-0.04,0.51-0.09c0.59-0.45,1.16-0.92,1.75-1.37
	c9.95-7.64,21.11-10.25,33.17-6.82c14.7,4.18,23.02,14.56,25.84,29.29c1.51,7.9,0.54,16,0.7,24c0.45,23.3-0.18,46.61,0.36,69.92
	c0.35,15.38,0.14,30.76,0.27,46.14c0.25,30.4,0.27,60.79,0.54,91.19c0.11,12.4,0.02,24.81,0.04,37.22c0,0.72-0.3,1.5,0.39,2.16
	C629.61,679.66,629.93,679.15,630.33,678.81z M567.34,350.81c9.95-3.15,20.14-4.89,30.56-3.96c17.07,1.52,31.39,8.91,42.92,21.51
	c8.79,9.61,14.54,20.83,16.8,33.78c1.44,8.25,0.54,16.56,0.87,24.83c0.52,13.41,0.01,26.84,0.31,40.27
	c0.4,17.52-0.1,35.05,0.3,52.57c0.42,18.55-0.13,37.11,0.3,55.66c0.37,16.03,0.21,32.08,0.31,48.12c0.05,7.27,0.16,14.54,0.25,21.81
	c0.01,0.73-0.12,1.5,0.46,2.1c0.64,0.02,0.98-0.46,1.41-0.81c4.33-3.57,7.88-7.93,11.87-11.84c1.25-1.22,1.73-2.43,1.71-4.14
	c-0.14-13.89-0.17-27.79-0.28-41.68c-0.18-21.54,0.01-43.08-0.23-64.62c-0.4-36.65-0.25-73.3-0.36-109.96
	c-0.01-2.88-0.07-5.78-0.42-8.64c-2.93-24.36-14.06-44.2-33.62-58.97c-13.43-10.15-28.96-14.96-45.71-15.83
	c-8.92-0.46-17.61,0.99-26.19,3.34c-2.65,0.73-4.14,2.13-3.84,5.18c0.37,3.79,0.44,7.61,0.64,11.42
	C566.36,351.36,566.82,350.98,567.34,350.81z"/>
<path class="st27" d="M646.77,106.49c0.58-9.95,5.79-16.57,14.76-20.45c12.19-5.28,30.27,3.1,31.25,18.22
	c-0.1,2.05,0.12,4.06,1.04,6.02c0-1.82,0-3.64,0-5.46c2-6.86,5.45-12.61,12.19-15.84c4.94-2.37,6.02-2.15,9.62,1.85
	c2.49,2.77,5.04,5.49,8.02,8.01c1.32-11.07-0.33-21.98,0.84-33.46c5.36,5.15,10.34,9.94,15.32,14.72c0.71,0.69,0.52,1.55,0.52,2.37
	c-0.07,10.16,0.08,20.34-0.35,30.49c-0.23,5.49-4.04,9.28-8.24,12.34c-10.02,7.28-23.98,6.08-32.74-2.61
	c-2.75-2.73-3.88-6.35-5.77-9.77c0,4.48,0,8.96,0,13.58c-5.16,0.35-9.94,0.67-14.8,0.44c-1.1-2.43-0.82-4.95-0.87-7.42
	c-0.11-4.55,0.68-9.14-0.54-13.63c-0.95-3.46-4.36-6.47-7-6.4c-3.02,0.07-6.15,3.2-7.1,6.94c-1.07,4.2,0.11,8.33,0.34,12.48
	c0.14,2.61,0.25,5.17-0.28,7.83c-5.03,0.73-9.93-0.16-14.97-0.09c-0.21-3.4-0.42-6.71-0.63-10.01
	C647.15,113.26,646.96,109.87,646.77,106.49z M717.34,115.17c5.2,0,7.28-2.25,7.29-7.92c0.01-5.64-0.98-6.83-5.67-6.88
	c-4.85-0.05-8.68,2.95-8.66,6.78C710.34,112.46,712.72,115.17,717.34,115.17z M527.05,110.46c-1.9,11.61-9.91,17.22-20.67,18.43
	c-6.04,0.68-11.83-0.2-16.86-4.02c-3.44-2.61-5.68-6.08-7.32-10.01c-0.44-1.07-0.88-2.13-1.48-3.59c-1.1,3.21-2.42,5.84-4.06,8.33
	c-2.98,4.53-7.37,6.68-12.49,7.58c-1.34,0.24-2.76,0.32-3.85-0.97c-2.93-3.47-5.93-6.89-9.06-10.52c2.3-1.2,4.55-0.58,6.7-0.75
	c5.33-0.44,8.83-6.01,6.66-10.66c-1.46-3.13-4.81-4.99-7.95-4.41c-3.21,0.6-5.56,3.02-5.72,6.6c-0.24,5.55-0.24,11.12-0.16,16.68
	c0.11,8.44,0.3,16.88-0.2,25.21c-1.22,0.38-1.68-0.33-2.16-0.83c-4-4.22-7.94-8.5-11.97-12.69c-0.79-0.83-1.01-1.64-0.99-2.73
	c0.13-9.69,0-19.39,0.39-29.07c0.25-6.31,4.38-10.33,9.35-13.73c8.51-5.82,24.29-4.27,30.16,2.9c2.56,3.13,4.51,6.56,5.92,10.89
	c0.88-1.88,1.49-3.35,2.25-4.75c4.64-8.53,12.33-11.68,21.46-11.25c12.03,0.56,17.96,5.63,22.04,17.76
	C527.04,106.72,527.04,108.59,527.05,110.46z M504.44,100.93c-4-0.06-6.95,2.86-7.07,6.97c-0.1,3.68,3.27,7.22,6.96,7.32
	c3.45,0.09,6.98-3.59,7.02-7.33C511.39,104.36,508.04,100.99,504.44,100.93z M645.93,106.4c-0.94-10.45-7.08-17.88-16.65-19.81
	c-5.79-1.17-11.57-0.5-16.99,1.72c-6.62,2.71-10.26,8.21-12.23,14.98c-0.33-0.06-0.66-0.12-0.99-0.18c0-12.43,0-24.86,0-37.28
	c-5.81,4.48-9.74,9.93-14.2,14.91c-0.67,0.75-0.47,1.56-0.47,2.36c0,10.36,0.01,20.71,0.01,31.07c0,4.35,0,8.7,0,13.16
	c4.4-0.15,8.06,0.33,11.79,0.11c2.94-0.17,3.49-1.2,3.43-3.85c-0.09-3.82-0.51-7.7,0.35-11.51c0.75,0.09,0.77,0.49,0.85,0.82
	c1.85,7.45,8.56,13.42,16.13,14.28c1.29,0.15,2.85,0.45,3.73-0.64c3.24-4.02,7.03-7.65,9.37-12.46c-1.3-0.48-2.33-0.07-3.39,0.19
	c-2.84,0.7-5.53,0.42-7.95-1.4c-3.21-2.42-4.17-7.16-2.03-10.19c2.09-2.95,6.66-3.59,10.05-1.55c3.08,1.86,3.45,4.81,3.61,7.96
	c0.31,5.9,0.69,11.8,1.05,17.77c5.37,0.65,10.38,0.54,15.11-0.24c0-3.55,0-6.71,0-9.87C646.35,113.3,645.53,109.88,645.93,106.4z
	 M528.13,109.91c-0.03,5.94-0.01,11.87,0.99,17.83c4.05,0.12,7.93,0.08,11.84-0.28c2.16-0.2,3-0.82,2.93-3.18
	c-0.18-6.52,0-13.06-0.1-19.59c-0.03-2.03,0.85-3.67,2.63-3.61c3.95,0.14,5.3-2.57,7.05-5.2c1.48-2.22,3.05-4.45,5.35-6.56
	c0.32,5.47,0.07,10.39,0.29,15.31c0.22,4.93,0.28,9.86,0.92,14.77c0.61,4.65,2.92,7.17,7.62,7.9c4.35,0.67,8.67,0.12,12.99-0.22
	c1.04-4.51,0-8.82,0.04-13.27c-0.79,0-1.34-0.05-1.88,0.01c-2.66,0.31-4.06-0.75-4.05-3.53c0.01-2.05-0.19-4.1-0.11-6.14
	c0.15-3.74,0.21-3.73,4-3.78c0.72-0.01,1.45-0.08,2.35-0.13c0-3.83,0.03-7.54-0.01-11.24c-0.02-1.8-0.81-2.65-2.79-2.42
	c-1.23,0.14-2.52-0.23-4.28-0.43c0-6.52,0-12.86,0-19.19c-3.86,3.38-7.02,6.92-10.27,10.35c-2.41,2.54-5.33,4.74-4.8,8.95
	c-5.56,0.56-10.86,0.54-16.12,1.18c-10.1,1.22-16.28,10-14.8,17.27C528.45,106.43,528.23,108.17,528.13,109.91z M598.74,739.63
	c-1.8-7.52-6.28-12.65-13.56-15.36c-3.86-1.44-7.34-1.82-9.65,2.52c-0.13,0.24-0.39,0.4-0.57,0.61c-2.3,2.7-4.6,5.39-6.9,8.09
	c0.88,0.32,1.35,0.12,1.84-0.05c4.54-1.6,8.8-0.52,11.54,2.94c2.18,2.74,2.14,5.67-0.12,8.96c-1.65,2.41-5.38,3.78-8.1,2.99
	c-2.92-0.85-5.51-4.03-5.56-6.92c-0.21-11.17-0.37-22.35-0.6-33.52c-0.05-2.63-0.31-5.26-0.46-7.72c-0.89-0.3-1.18,0.05-1.5,0.41
	c-4.08,4.46-8.16,8.92-12.28,13.34c-0.67,0.72-0.6,1.52-0.6,2.34c0,7.64-0.31,15.3,0.1,22.92c0.36,6.71,1.65,13.21,7.59,17.82
	c12.62,9.8,37.05,6.41,39.26-13.81C599.02,743.34,598.88,741.48,598.74,739.63z M649.18,761.48c2.52,0.02,5.03,0.03,7.55,0.03
	c5.82,0,5.83,0,5.77-5.73c-0.06-5.49,0.27-10.98-0.56-16.45c-0.87-5.78-3.39-10.42-8.33-13.86c-6.26-4.38-13.09-4.84-20.24-3.63
	c-10.63,1.8-17.62,9.72-17.65,20.44c-0.03,9.99,7.8,18.1,18.33,19.51c0.91,0.12,1.92,0.34,2.6-0.5c3.17-3.92,6.3-7.87,9.82-12.28
	c-1.6,0.48-2.55,0.81-3.52,1.05c-4.59,1.15-10.72-1.8-11.67-5.75c-0.84-3.48,0.38-6.38,3.03-8.72c2.32-2.05,5.05-2,7.6-0.92
	c2.85,1.2,4.66,3.37,4.97,6.78c0.59,6.55,0.42,13.17,1.52,19.82C648.83,761.39,649,761.48,649.18,761.48z M744.38,743.69
	c-0.74,0.88-1.74,0.43-2.62,0.45c-7.36,0.13-14.72,0.22-22.08,0.32c-0.73,0.01-1.48-0.04-2.13,0.4c1.23,4.44,5.99,5.91,9.3,2.89
	c1.5-1.37,3.01-1.15,4.52,0.04c2.72,2.14,5.1,4.61,7.22,7.33c-6.04,6.84-15.82,8.53-24.89,4.34c-10.56-4.88-13.81-15.06-11.9-23.72
	c2.23-10.13,11.49-16.34,22.93-15.99c9.67,0.3,17.91,7.92,19.63,18.16C744.48,739.83,743.89,741.76,744.38,743.69z M728.28,733.92
	c-3.08-3.8-7.14-3.61-9.28,0.24C722.05,734.51,725.02,734.24,728.28,733.92z M687.7,748.58c4.44-9.44,10.37-17.62,15.11-27.14
	c-1.63,0-2.54-0.02-3.44,0c-6.33,0.18-12.66,0.67-18.98,0.48c-4.91-0.15-8.54,1.14-10.99,5.6c-1.47,2.69-4.04,4.69-5.6,7.59
	c4.75,1.29,9.34,0.18,14.28,0.88c-4.88,8.39-9.59,16.49-14.37,24.7c1.84,0.65,3.33,0.58,4.8,0.56c6.14-0.07,12.29-0.4,18.42-0.18
	c2.95,0.1,5.23-0.59,7.27-2.59c2.87-2.82,4.51-6.52,7.75-9.91C696.9,748.58,692.55,748.58,687.7,748.58z M599.75,745.31
	c-0.1,5.4,0.41,10.78,0.75,16.37c4.96,0.27,9.82,0.24,14.68-0.42c-0.38-20.18-0.75-40.14-1.13-60.35c-0.64,0.35-0.91,0.44-1.1,0.62
	c-4.77,4.49-8.67,9.74-12.84,14.75c-0.41,0.5-0.69,1.03-0.68,1.76c0.11,7.18,0.16,14.36,0.23,21.54
	C600.06,741.49,599.87,743.4,599.75,745.31z M745.32,743.62c0.71,5.6,1.29,11.2,1.15,17.05c4.45,0,8.72,0.03,12.99-0.02
	c1.04-0.01,1.96-0.2,1.94-1.73c-0.09-6.8-0.02-13.6-0.12-20.4c-0.04-2.56,1.56-5.01,3.89-4.56c2.9,0.56,4.26-1.08,5.83-2.73
	c3.04-3.18,6.43-6.03,9.28-9.89c-8.02-0.31-15.6-0.87-23.15,0.46c-5.11,0.9-8.55,3.88-10.56,8.53c-1.04,2.4-1.38,5-1.27,7.63
	C745.31,739.85,745.32,741.73,745.32,743.62z M771.23,760.38c7.99-0.3,14.52-4.6,16.49-11.03c0.67-2.2,1.12-4.53,1.28-6.82
	c0.29-4.09,2.15-6.8,6.09-8.04c1.31-0.41,2.59-0.89,3.81-1.31c0-4.5,0-8.94,0-13.32c-8.25-2.08-15.98,1.56-19.36,9.04
	c-1.54,3.4-2.41,7-2.85,10.71c-0.48,4.12-2.4,6.31-6.43,7.38c-1.23,0.33-2.51,0.51-3.8,0.76c0,4.13,0,8.21,0,12.63
	C768.26,760.39,769.74,760.44,771.23,760.38z"/>
<path class="st28" d="M481.62,751.11c-2.55,4.79-6.27,8.39-9.86,11.96c-1.84,1.83-4.86,0.72-7.19-0.2
	c-9.22-3.62-14.7-13.13-13.14-22.56c1.65-9.92,9.71-16.92,19.93-17.47c3.85-0.2,7.64-0.12,11.3,1.09
	c8.92,2.93,14.49,10.91,14.7,20.64c0.13,6.14-0.61,12.28-0.02,18.72c-4.81,0.41-9.51,0.16-14.25,0.09c-1.07-3.33-0.93-6.55-0.72-9.8
	c0.22-3.25,0.48-6.52-0.18-9.75c-1.1-5.39-5.14-8.43-9.91-7.57c-4.91,0.89-7.4,5.6-5.41,10.2c1.73,3.98,5.62,5.9,10,5.07
	C478.33,751.26,479.75,750.57,481.62,751.11z M418.62,724.24c-1.39,0.08-2.09-0.6-2.1-1.98c-0.01-1.03,0.01-2.05,0.01-3.08
	c0-4.88,0-9.75,0-14.63c-1.27-0.16-1.55,0.14-1.79,0.4c-4.05,4.37-8.11,8.74-12.14,13.14c-0.79,0.86-0.9,1.98-1,3.13
	c-0.74,9.31,0.43,18.62,0.02,27.93c-0.1,2.26,0.17,4.48,0.6,6.67c0.83,4.2,3.31,7.05,7.48,8.16c4.61,1.23,9.16,0.35,13.76-0.47
	c0-3.28-0.11-6.26,0.03-9.24c0.13-2.64-0.58-4.09-3.56-3.75c-1.39,0.16-2.85,0.06-2.87-2.06c-0.02-2.7-0.07-5.41-0.36-8.09
	c-0.28-2.61,0.65-3.53,3.25-3.25c1.37,0.15,3.23,0.39,3.26-1.93c0.04-3.44,0.01-6.88,0.01-10.19
	C421.59,724.11,420.11,724.15,418.62,724.24z M534.47,703.69c-4.07,3.84-7.43,8.35-11.29,12.38c-1.63,1.7-2.13,3.47-2.09,5.74
	c0.18,11.18,0.21,22.37,0.35,33.56c0.03,2.65,0.27,5.31,0.43,8.14c5.05-0.21,9.88,0.43,14.95-0.46c-0.3-20.06-0.6-39.97-0.91-59.94
	C535.03,702.92,534.79,703.39,534.47,703.69z M435.64,725.6c-4.27,1.42-7.11,4.22-8.68,8.41c-0.76,2.03-1.06,4.15-1.22,6.27
	c-0.56,7.42,1.15,14.83,0.24,22.27c-0.2,1.65,1.24,1.65,2.36,1.48c2.97-0.45,5.94-0.26,8.92-0.28c4.8-0.03,4.91-0.18,4.43-4.87
	c-0.61-5.93-0.49-11.88-0.27-17.82c0.12-3.23,1.78-4.53,5.13-4.3c0.86,0.06,1.68,0.22,2.32-0.52c3.34-3.85,6.92-7.49,10.05-11.97
	C453.4,723.04,440.85,723.87,435.64,725.6z M502.2,763.35c5.06,0,9.86,0,14.82,0c-0.36-12.95,0.6-25.77-0.67-38.65
	c-5.2,0-10.1,0-15.3,0C500.89,737.67,501.74,750.44,502.2,763.35z M517.5,710.63c0.04-4.34-3.85-8.45-8-8.46
	c-4.66-0.01-8.32,3.6-8.35,8.26c-0.03,4.65,3.31,7.92,8.14,7.97C513.64,718.44,517.46,714.82,517.5,710.63z"/>
</svg>
